<svg xmlns="http://www.w3.org/2000/svg" width="99" height="32" fill="none" style=""><rect id="backgroundrect" width="100%" height="100%" x="0" y="0" fill="none" stroke="none" style="" class=""/>












<g class="currentLayer" style=""><title>Layer 1</title><path d="M239.6552614135742,139.73682689208985 C238.7262614135742,140.94382689208985 238.7262614135742,142.62482689208986 239.6552614135742,143.83082689208985 C240.6622614135742,145.13982689208984 264.48926141357424,175.34382689208985 292.6462614135742,175.34382689208985 C320.8032614135742,175.34382689208985 344.63126141357424,145.13982689208984 345.6372614135742,143.83082689208985 C346.56626141357424,142.62482689208986 346.56626141357424,140.94382689208985 345.6372614135742,139.73682689208985 C344.63126141357424,138.42782689208985 320.8032614135742,108.22383689208985 292.6462614135742,108.22383689208985 C264.48926141357424,108.22383689208985 240.6622614135742,138.42782689208985 239.6552614135742,139.73682689208985 zM246.66926141357422,141.78382689208985 C252.37426141357423,135.07182689208986 271.70526141357425,114.93582689208985 292.6462614135742,114.93582689208985 C313.58826141357423,114.93582689208985 332.9182614135742,135.07182689208986 338.62326141357426,141.78382689208985 C332.9182614135742,148.49582689208984 313.5542614135742,168.63182689208986 292.6462614135742,168.63182689208986 C271.70526141357425,168.63182689208986 252.37426141357423,148.49582689208984 246.66926141357422,141.78382689208985 z" fill="#59C3B9" id="svg_1" class=""/><path d="M238.15326141357423,138.70652689208984 C237.22426141357423,139.91352689208983 237.22426141357423,141.59452689208985 238.15326141357423,142.80052689208983 C239.16026141357423,144.10952689208983 262.98726141357423,174.31352689208984 291.1442614135742,174.31352689208984 C319.30126141357425,174.31352689208984 343.1292614135742,144.10952689208983 344.13626141357423,142.80052689208983 C345.06426141357423,141.59452689208985 345.06426141357423,139.91352689208983 344.13626141357423,138.70652689208984 C343.1292614135742,137.39752689208984 319.30126141357425,107.19356689208985 291.1442614135742,107.19356689208985 C262.98726141357423,107.19356689208985 239.16026141357423,137.39752689208984 238.15326141357423,138.70652689208984 zM245.1672614135742,140.75352689208984 C250.87226141357422,134.04152689208985 270.2032614135742,113.90556689208984 291.1442614135742,113.90556689208984 C312.0862614135742,113.90556689208984 331.4162614135742,134.04152689208985 337.1212614135742,140.75352689208984 C331.4162614135742,147.46552689208983 312.05226141357423,167.60152689208985 291.1442614135742,167.60152689208985 C270.2032614135742,167.60152689208985 250.87226141357422,147.46552689208983 245.1672614135742,140.75352689208984 z" fill="#87D0C8" id="svg_2" class=""/><path d="M236.6502614135742,137.67632689208983 C235.7212614135742,138.88332689208983 235.7212614135742,140.56432689208984 236.6502614135742,141.77032689208983 C237.65726141357422,143.07932689208985 261.48426141357425,173.28332689208986 289.6412614135742,173.28332689208986 C317.7982614135742,173.28332689208986 341.62626141357424,143.07932689208985 342.63326141357425,141.77032689208983 C343.56126141357424,140.56432689208984 343.56126141357424,138.88332689208983 342.63326141357425,137.67632689208983 C341.62626141357424,136.36732689208984 317.7982614135742,106.16329689208985 289.6412614135742,106.16329689208985 C261.48426141357425,106.16329689208985 237.65726141357422,136.36732689208984 236.6502614135742,137.67632689208983 zM243.66426141357422,139.72332689208986 C249.3692614135742,133.01132689208984 268.70026141357425,112.87528689208985 289.6412614135742,112.87528689208985 C310.5832614135742,112.87528689208985 329.9132614135742,133.01132689208984 335.61826141357426,139.72332689208986 C329.9132614135742,146.43532689208985 310.5492614135742,166.57132689208984 289.6412614135742,166.57132689208984 C268.70026141357425,166.57132689208984 249.3692614135742,146.43532689208985 243.66426141357422,139.72332689208986 z" fill="#AFDED8" id="svg_3" class=""/><path d="M235.14826141357423,136.64602689208985 C234.21926141357423,137.85302689208984 234.21926141357423,139.53402689208986 235.14826141357423,140.74002689208984 C236.1552614135742,142.04902689208984 259.9822614135742,172.25302689208985 288.1392614135742,172.25302689208985 C316.29626141357426,172.25302689208985 340.12426141357423,142.04902689208984 341.13126141357424,140.74002689208984 C342.05926141357423,139.53402689208986 342.05926141357423,137.85302689208984 341.13126141357424,136.64602689208985 C340.12426141357423,135.33702689208985 316.29626141357426,105.13301689208984 288.1392614135742,105.13301689208984 C259.9822614135742,105.13301689208984 236.1552614135742,135.33702689208985 235.14826141357423,136.64602689208985 zM242.1622614135742,138.69302689208985 C247.86726141357423,131.98102689208986 267.1982614135742,111.84501689208984 288.1392614135742,111.84501689208984 C309.0812614135742,111.84501689208984 328.4112614135742,131.98102689208986 334.1172614135742,138.69302689208985 C328.4112614135742,145.40502689208984 309.04726141357423,165.54102689208986 288.1392614135742,165.54102689208986 C267.1982614135742,165.54102689208986 247.86726141357423,145.40502689208984 242.1622614135742,138.69302689208985 z" fill="#D6EDEA" id="svg_4" class=""/><path d="M233.64526141357422,135.61622689208986 C232.71626141357422,136.82322689208985 232.71626141357422,138.50422689208983 233.64526141357422,139.71022689208985 C234.65226141357422,141.01922689208985 258.47926141357425,171.22322689208983 286.63626141357423,171.22322689208983 C314.7932614135742,171.22322689208983 338.6212614135742,141.01922689208985 339.6282614135742,139.71022689208985 C340.5562614135742,138.50422689208983 340.5562614135742,136.82322689208985 339.6282614135742,135.61622689208986 C338.6212614135742,134.30722689208983 314.7932614135742,104.10323329208984 286.63626141357423,104.10323329208984 C258.47926141357425,104.10323329208984 234.65226141357422,134.30722689208983 233.64526141357422,135.61622689208986 zM240.65926141357423,137.66322689208985 C246.3642614135742,130.95122689208984 265.69526141357426,110.81522689208984 286.63626141357423,110.81522689208984 C307.5782614135742,110.81522689208984 326.9082614135742,130.95122689208984 332.6132614135742,137.66322689208985 C326.9082614135742,144.37522689208984 307.5442614135742,164.51122689208984 286.63626141357423,164.51122689208984 C265.69526141357426,164.51122689208984 246.3642614135742,144.37522689208984 240.65926141357423,137.66322689208985 z" fill="white" id="svg_5" class=""/><path d="M0.4081575870513916,30.93877387046814 C6.488157587051404,23.93877387046814 27.090157587051408,2.9387738704681396 49.40815758705139,2.9387738704681396 C71.72715758705135,2.9387738704681396 92.32815758705135,23.93877387046814 98.40815758705139,30.93877387046814 C92.32815758705135,37.93877387046814 71.6911575870514,58.93877387046814 49.40815758705139,58.93877387046814 C27.090157587051408,58.93877387046814 6.488157587051404,37.93877387046814 0.4081575870513916,30.93877387046814 z" fill="white" id="svg_6" class=""/><path d="M0.5839410787963866,116.75614415283204 C-0.3450589212036128,117.96314415283203 -0.3450589212036128,119.64414415283204 0.5839410787963866,120.85014415283203 C1.5909410787963871,122.15914415283203 25.417951078796385,152.36314415283204 53.57495107879639,152.36314415283204 C81.73195107879638,152.36314415283204 105.55955107879639,122.15914415283203 106.5665510787964,120.85014415283203 C107.49455107879639,119.64414415283204 107.49455107879639,117.96314415283203 106.5665510787964,116.75614415283204 C105.55955107879639,115.44714415283204 81.73195107879638,85.24317415283203 53.57495107879639,85.24317415283203 C25.417951078796385,85.24317415283203 1.5909410787963871,115.44714415283204 0.5839410787963866,116.75614415283204 zM7.597951078796386,118.80314415283203 C13.302951078796386,112.09114415283203 32.633951078796386,91.95514415283203 53.57495107879639,91.95514415283203 C74.51695107879638,91.95514415283203 93.84695107879638,112.09114415283203 99.5515510787964,118.80314415283203 C93.84695107879638,125.51514415283202 74.48295107879639,145.65114415283205 53.57495107879639,145.65114415283205 C32.633951078796386,145.65114415283205 13.302951078796386,125.51514415283202 7.597951078796386,118.80314415283203 z" fill="#59C3B9" id="svg_7" class=""/><path d="M-0.9184989212036134,115.72594415283203 C-1.8474989212036128,116.93294415283202 -1.8474989212036128,118.61394415283203 -0.9184989212036134,119.81994415283202 C0.08850107879638713,121.12894415283203 23.915551078796387,151.33284415283202 52.07255107879639,151.33284415283202 C80.22955107879639,151.33284415283202 104.0575510787964,121.12894415283203 105.06455107879638,119.81994415283202 C105.99255107879638,118.61394415283203 105.99255107879638,116.93294415283202 105.06455107879638,115.72594415283203 C104.0575510787964,114.41694415283203 80.22955107879639,84.21289415283204 52.07255107879639,84.21289415283204 C23.915551078796387,84.21289415283204 0.08850107879638713,114.41694415283203 -0.9184989212036134,115.72594415283203 zM6.095551078796387,117.77294415283203 C11.800551078796389,111.06094415283204 31.131551078796385,90.92489415283202 52.07255107879639,90.92489415283202 C73.01455107879639,90.92489415283202 92.34455107879639,111.06094415283204 98.04955107879638,117.77294415283203 C92.34455107879639,124.48494415283203 72.98055107879638,144.62094415283204 52.07255107879639,144.62094415283204 C31.131551078796385,144.62094415283204 11.800551078796389,124.48494415283203 6.095551078796387,117.77294415283203 z" fill="#87D0C8" id="svg_8" class=""/><path d="M-2.4209389212036134,114.69564415283203 C-3.3499389212036133,115.90264415283204 -3.3499389212036133,117.58364415283202 -2.4209389212036134,118.78964415283204 C-1.4139389212036129,120.09864415283204 22.413051078796386,150.30264415283204 50.57005107879639,150.30264415283204 C78.72705107879639,150.30264415283204 102.55555107879638,120.09864415283204 103.56255107879639,118.78964415283204 C104.49055107879639,117.58364415283202 104.49055107879639,115.90264415283204 103.56255107879639,114.69564415283203 C102.55555107879638,113.38664415283203 78.72705107879639,83.18262415283203 50.57005107879639,83.18262415283203 C22.413051078796386,83.18262415283203 -1.4139389212036129,113.38664415283203 -2.4209389212036134,114.69564415283203 zM4.593051078796387,116.74264415283203 C10.298051078796387,110.03064415283202 29.629051078796387,89.89462415283204 50.57005107879639,89.89462415283204 C71.51205107879639,89.89462415283204 90.84205107879639,110.03064415283202 96.54755107879639,116.74264415283203 C90.84205107879639,123.45464415283203 71.47805107879638,143.59064415283203 50.57005107879639,143.59064415283203 C29.629051078796387,143.59064415283203 10.298051078796387,123.45464415283203 4.593051078796387,116.74264415283203 z" fill="#AFDED8" id="svg_9" class=""/><path d="M-3.9233789212036134,113.66534415283203 C-4.852378921203613,114.87234415283203 -4.852378921203613,116.55334415283204 -3.9233789212036134,117.75934415283203 C-2.9163789212036133,119.06834415283203 20.910651078796388,149.27234415283203 49.06765107879639,149.27234415283203 C77.22465107879638,149.27234415283203 101.05255107879638,119.06834415283203 102.05955107879639,117.75934415283203 C102.98755107879639,116.55334415283204 102.98755107879639,114.87234415283203 102.05955107879639,113.66534415283203 C101.05255107879638,112.35634415283204 77.22465107879638,82.15235415283203 49.06765107879639,82.15235415283203 C20.910651078796388,82.15235415283203 -2.9163789212036133,112.35634415283204 -3.9233789212036134,113.66534415283203 zM3.090621078796387,115.71234415283203 C8.795651078796388,109.00034415283203 28.126651078796385,88.86435415283204 49.06765107879639,88.86435415283204 C70.00965107879638,88.86435415283204 89.3396510787964,109.00034415283203 95.04455107879639,115.71234415283203 C89.3396510787964,122.42434415283203 69.97565107879639,142.56034415283204 49.06765107879639,142.56034415283204 C28.126651078796385,142.56034415283204 8.795651078796388,122.42434415283203 3.090621078796387,115.71234415283203 z" fill="#D6EDEA" id="svg_10" class=""/><path d="M128.24764790699768,142.73758539733888 C127.31864790699768,143.94458539733887 127.31864790699768,145.62558539733885 128.24764790699768,146.83158539733887 C129.25464990699768,148.14058539733887 153.08161990699767,178.34458539733885 181.23861990699768,178.34458539733885 C209.3956199069977,178.34458539733885 233.22401990699768,148.14058539733887 234.2310199069977,146.83158539733887 C235.15901990699768,145.62558539733885 235.15901990699768,143.94458539733887 234.2310199069977,142.73758539733888 C233.22401990699768,141.42858539733885 209.3956199069977,111.22460746733887 181.23861990699768,111.22460746733887 C153.08161990699767,111.22460746733887 129.25464990699768,141.42858539733885 128.24764790699768,142.73758539733888 zM135.26164990699766,144.78458539733887 C140.9666199069977,138.07258539733886 160.29761990699768,117.93660539733887 181.23861990699768,117.93660539733887 C202.18061990699766,117.93660539733887 221.51061990699768,138.07258539733886 227.2156199069977,144.78458539733887 C221.51061990699768,151.49658539733886 202.14661990699767,171.63258539733886 181.23861990699768,171.63258539733886 C160.29761990699768,171.63258539733886 140.9666199069977,151.49658539733886 135.26164990699766,144.78458539733887 z" fill="white" id="svg_11" class="" opacity="1"/><path d="M211.12243938446045,144.20407271871738 C216.899196078466,136.94897091875248 236.4733381830205,115.18366551885777 257.67777202804706,115.18366551885777 C278.8832509927861,115.18366551885777 298.4563479776282,136.94897091875248 304.2331046716337,144.20407271871738 C298.4563479776282,151.4591745186823 278.84876204227663,173.224479918577 257.67777202804706,173.224479918577 C236.4733381830205,173.224479918577 216.899196078466,151.4591745186823 211.12243938446045,144.20407271871738 z" fill="white" id="svg_12" class="" transform="rotate(138.66455078125 257.67779541015625,144.20407104492188) "/></g></svg>