<svg width="264" height="73" viewBox="0 0 264 73" fill="none" xmlns="http://www.w3.org/2000/svg">
<path d="M156.707 36.6337C155.778 37.8407 155.778 39.5217 156.707 40.7277C157.714 42.0367 181.541 72.2407 209.698 72.2407C237.855 72.2407 261.683 42.0367 262.689 40.7277C263.618 39.5217 263.618 37.8407 262.689 36.6337C261.683 35.3247 237.855 5.12073 209.698 5.12073C181.541 5.12073 157.714 35.3247 156.707 36.6337ZM163.721 38.6807C169.426 31.9687 188.757 11.8327 209.698 11.8327C230.64 11.8327 249.97 31.9687 255.675 38.6807C249.97 45.3927 230.606 65.5287 209.698 65.5287C188.757 65.5287 169.426 45.3927 163.721 38.6807Z" fill="#59C3B9"/>
<path d="M155.205 35.6035C154.276 36.8105 154.276 38.4915 155.205 39.6975C156.212 41.0065 180.039 71.2104 208.196 71.2104C236.353 71.2104 260.181 41.0065 261.188 39.6975C262.116 38.4915 262.116 36.8105 261.188 35.6035C260.181 34.2945 236.353 4.09045 208.196 4.09045C180.039 4.09045 156.212 34.2945 155.205 35.6035ZM162.219 37.6505C167.924 30.9385 187.255 10.8025 208.196 10.8025C229.138 10.8025 248.468 30.9385 254.173 37.6505C248.468 44.3625 229.104 64.4985 208.196 64.4985C187.255 64.4985 167.924 44.3625 162.219 37.6505Z" fill="#87D0C8"/>
<path d="M153.702 34.5732C152.773 35.7802 152.773 37.4612 153.702 38.6672C154.709 39.9762 178.536 70.1802 206.693 70.1802C234.85 70.1802 258.678 39.9762 259.685 38.6672C260.613 37.4612 260.613 35.7802 259.685 34.5732C258.678 33.2642 234.85 3.06018 206.693 3.06018C178.536 3.06018 154.709 33.2642 153.702 34.5732ZM160.716 36.6202C166.421 29.9082 185.752 9.77218 206.693 9.77218C227.635 9.77218 246.965 29.9082 252.67 36.6202C246.965 43.3322 227.601 63.4682 206.693 63.4682C185.752 63.4682 166.421 43.3322 160.716 36.6202Z" fill="#AFDED8"/>
<path d="M152.2 33.5429C151.271 34.7499 151.271 36.4309 152.2 37.6369C153.207 38.9459 177.034 69.1499 205.191 69.1499C233.348 69.1499 257.176 38.9459 258.183 37.6369C259.111 36.4309 259.111 34.7499 258.183 33.5429C257.176 32.2339 233.348 2.02991 205.191 2.02991C177.034 2.02991 153.207 32.2339 152.2 33.5429ZM159.214 35.5899C164.919 28.8779 184.25 8.74191 205.191 8.74191C226.133 8.74191 245.463 28.8779 251.169 35.5899C245.463 42.3019 226.099 62.4379 205.191 62.4379C184.25 62.4379 164.919 42.3019 159.214 35.5899Z" fill="#D6EDEA"/>
<path d="M150.697 32.5131C149.768 33.7201 149.768 35.4011 150.697 36.6071C151.704 37.9161 175.531 68.1201 203.688 68.1201C231.845 68.1201 255.673 37.9161 256.68 36.6071C257.608 35.4011 257.608 33.7201 256.68 32.5131C255.673 31.2041 231.845 1.00012 203.688 1.00012C175.531 1.00012 151.704 31.2041 150.697 32.5131ZM157.711 34.5601C163.416 27.8481 182.747 7.71212 203.688 7.71212C224.63 7.71212 243.96 27.8481 249.665 34.5601C243.96 41.2721 224.596 61.4081 203.688 61.4081C182.747 61.4081 163.416 41.2721 157.711 34.5601Z" fill="white"/>
<path d="M196.515 44.2757C195.944 44.2757 195.391 44.1977 194.865 44.0507C197.573 49.1257 202.883 52.2857 208.656 52.2267C216.475 52.2267 222.814 45.8877 222.814 38.0687C222.814 30.2487 216.475 23.9107 208.656 23.9107C202.844 23.8517 197.498 27.0567 194.807 32.1917C195.35 32.0357 195.924 31.9527 196.515 31.9527C199.918 31.9527 202.677 34.7117 202.677 38.1137C202.677 41.5167 199.918 44.2757 196.515 44.2757Z" fill="#59C3B9"/>
<path d="M195.459 43.5513C194.888 43.5513 194.335 43.4733 193.809 43.3263C196.517 48.4013 201.827 51.4733 207.6 51.5023C215.419 51.5423 221.758 45.1633 221.758 37.3443C221.758 29.5243 215.419 23.2253 207.6 23.1863C201.787 23.1563 196.442 26.3323 193.751 31.4673C194.294 31.3113 194.867 31.2283 195.459 31.2283C198.862 31.2283 201.621 33.9873 201.621 37.3893C201.621 40.7923 198.862 43.5513 195.459 43.5513Z" fill="#87D0C8"/>
<path d="M194.402 42.8271C193.831 42.8271 193.278 42.7491 192.752 42.6021C195.46 47.6771 200.77 50.7491 206.543 50.7781C214.362 50.8181 220.701 44.4391 220.701 36.6201C220.701 28.8001 214.362 22.5011 206.543 22.4621C200.73 22.4321 195.385 25.6081 192.694 30.7431C193.237 30.5871 193.811 30.5041 194.402 30.5041C197.805 30.5041 200.564 33.2631 200.564 36.6651C200.564 40.0681 197.805 42.8271 194.402 42.8271Z" fill="#AFDED8"/>
<path d="M193.346 42.1025C192.775 42.1025 192.222 42.0245 191.696 41.8775C194.404 46.9525 199.714 50.0245 205.487 50.0535C213.306 50.0935 219.645 43.7145 219.645 35.8955C219.645 28.0755 213.306 21.7765 205.487 21.7375C199.674 21.7075 194.329 24.8835 191.638 30.0185C192.181 29.8625 192.755 29.7795 193.346 29.7795C196.749 29.7795 199.508 32.5385 199.508 35.9405C199.508 39.3435 196.749 42.1025 193.346 42.1025Z" fill="#D6EDEA"/>
<path d="M192.29 41.3783C191.719 41.3783 191.166 41.3003 190.64 41.1533C193.348 46.2283 198.658 49.3883 204.431 49.3293C212.25 49.3293 218.589 42.9903 218.589 35.1713C218.589 27.3513 212.25 21.0133 204.431 21.0133C198.619 20.9543 193.273 24.1593 190.582 29.2943C191.125 29.1383 191.698 29.0553 192.29 29.0553C195.693 29.0553 198.452 31.8143 198.452 35.2163C198.452 38.6193 195.693 41.3783 192.29 41.3783Z" fill="white"/>
<path d="M6.92136 36.6122C5.99236 37.8192 5.99236 39.5002 6.92136 40.7062C7.92836 42.0152 31.7554 72.2192 59.9124 72.2192C88.0694 72.2192 111.897 42.0152 112.904 40.7062C113.832 39.5002 113.832 37.8192 112.904 36.6122C111.897 35.3032 88.0694 5.09924 59.9124 5.09924C31.7554 5.09924 7.92836 35.3032 6.92136 36.6122ZM13.9354 38.6592C19.6404 31.9472 38.9714 11.8112 59.9124 11.8112C80.8544 11.8112 100.184 31.9472 105.889 38.6592C100.184 45.3712 80.8204 65.5072 59.9124 65.5072C38.9714 65.5072 19.6404 45.3712 13.9354 38.6592Z" fill="#59C3B9"/>
<path d="M5.41892 35.582C4.48992 36.789 4.48992 38.47 5.41892 39.676C6.42592 40.985 30.2529 71.189 58.4099 71.189C86.5669 71.189 110.395 40.985 111.402 39.676C112.33 38.47 112.33 36.789 111.402 35.582C110.395 34.273 86.5669 4.06897 58.4099 4.06897C30.2529 4.06897 6.42592 34.273 5.41892 35.582ZM12.4329 37.629C18.1379 30.917 37.4689 10.781 58.4099 10.781C79.3519 10.781 98.6819 30.917 104.387 37.629C98.6819 44.341 79.3179 64.477 58.4099 64.477C37.4689 64.477 18.1379 44.341 12.4329 37.629Z" fill="#87D0C8"/>
<path d="M3.91648 34.5517C2.98748 35.7587 2.98748 37.4397 3.91648 38.6457C4.92348 39.9547 28.7505 70.1587 56.9075 70.1587C85.0645 70.1587 108.892 39.9547 109.899 38.6457C110.827 37.4397 110.827 35.7587 109.899 34.5517C108.892 33.2427 85.0645 3.0387 56.9075 3.0387C28.7505 3.0387 4.92348 33.2427 3.91648 34.5517ZM10.9305 36.5987C16.6355 29.8867 35.9665 9.75069 56.9075 9.75069C77.8495 9.75069 97.1795 29.8867 102.884 36.5987C97.1795 43.3107 77.8155 63.4467 56.9075 63.4467C35.9665 63.4467 16.6355 43.3107 10.9305 36.5987Z" fill="#AFDED8"/>
<path d="M2.41404 33.5214C1.48504 34.7284 1.48504 36.4094 2.41404 37.6154C3.42104 38.9244 27.248 69.1284 55.405 69.1284C83.562 69.1284 107.39 38.9244 108.397 37.6154C109.325 36.4094 109.325 34.7284 108.397 33.5214C107.39 32.2124 83.562 2.00842 55.405 2.00842C27.248 2.00842 3.42104 32.2124 2.41404 33.5214ZM9.42804 35.5684C15.133 28.8564 34.464 8.72042 55.405 8.72042C76.347 8.72042 95.677 28.8564 101.382 35.5684C95.677 42.2804 76.313 62.4164 55.405 62.4164C34.464 62.4164 15.133 42.2804 9.42804 35.5684Z" fill="#D6EDEA"/>
<path d="M0.911594 32.4916C-0.0174062 33.6986 -0.0174062 35.3796 0.911594 36.5856C1.91859 37.8946 25.7456 68.0986 53.9026 68.0986C82.0596 68.0986 105.888 37.8946 106.895 36.5856C107.823 35.3796 107.823 33.6986 106.895 32.4916C105.888 31.1826 82.0596 0.978638 53.9026 0.978638C25.7456 0.978638 1.91859 31.1826 0.911594 32.4916ZM7.92559 34.5386C13.6306 27.8266 32.9616 7.69064 53.9026 7.69064C74.8446 7.69064 94.1746 27.8266 99.8796 34.5386C94.1746 41.2506 74.8106 61.3866 53.9026 61.3866C32.9616 61.3866 13.6306 41.2506 7.92559 34.5386Z" fill="white"/>
<path d="M46.7094 44.2542C46.1384 44.2542 45.5854 44.1762 45.0594 44.0292C47.7674 49.1042 53.0774 52.2642 58.8504 52.2052C66.6694 52.2052 73.0084 45.8662 73.0084 38.0472C73.0084 30.2272 66.6694 23.8892 58.8504 23.8892C53.0384 23.8302 47.6924 27.0352 45.0024 32.1702C45.5444 32.0142 46.1184 31.9312 46.7094 31.9312C50.1124 31.9312 52.8714 34.6902 52.8714 38.0922C52.8714 41.4952 50.1124 44.2542 46.7094 44.2542Z" fill="#59C3B9"/>
<path d="M45.6528 43.5298C45.0818 43.5298 44.5288 43.4518 44.0028 43.3048C46.7108 48.3798 52.0208 51.4518 57.7938 51.4808C65.6128 51.5208 71.9518 45.1418 71.9518 37.3228C71.9518 29.5028 65.6128 23.2038 57.7938 23.1648C51.9808 23.1348 46.6358 26.3108 43.9448 31.4458C44.4878 31.2898 45.0618 31.2068 45.6528 31.2068C49.0558 31.2068 51.8148 33.9658 51.8148 37.3678C51.8148 40.7708 49.0558 43.5298 45.6528 43.5298Z" fill="#87D0C8"/>
<path d="M44.5964 42.8056C44.0254 42.8056 43.4724 42.7276 42.9464 42.5806C45.6544 47.6556 50.9644 50.7276 56.7374 50.7566C64.5564 50.7966 70.8954 44.4176 70.8954 36.5986C70.8954 28.7786 64.5564 22.4796 56.7374 22.4406C50.9244 22.4106 45.5794 25.5866 42.8884 30.7216C43.4314 30.5656 44.0044 30.4826 44.5964 30.4826C47.9994 30.4826 50.7584 33.2416 50.7584 36.6436C50.7584 40.0466 47.9994 42.8056 44.5964 42.8056Z" fill="#AFDED8"/>
<path d="M43.54 42.081C42.969 42.081 42.416 42.003 41.89 41.856C44.598 46.931 49.908 50.003 55.681 50.032C63.5 50.072 69.839 43.693 69.839 35.874C69.839 28.054 63.5 21.755 55.681 21.716C49.868 21.686 44.523 24.862 41.833 29.997C42.375 29.841 42.949 29.758 43.54 29.758C46.943 29.758 49.702 32.517 49.702 35.919C49.702 39.322 46.943 42.081 43.54 42.081Z" fill="#D6EDEA"/>
<path d="M42.4836 41.3568C41.9126 41.3568 41.3596 41.2788 40.8336 41.1318C43.5416 46.2068 48.8516 49.3668 54.6246 49.3078C62.4436 49.3078 68.7826 42.9688 68.7826 35.1498C68.7826 27.3298 62.4436 20.9918 54.6246 20.9918C48.8126 20.9328 43.4666 24.1378 40.7756 29.2728C41.3186 29.1168 41.8926 29.0338 42.4836 29.0338C45.8866 29.0338 48.6456 31.7928 48.6456 35.1948C48.6456 38.5978 45.8866 41.3568 42.4836 41.3568Z" fill="white"/>
</svg>
