<svg xmlns="http://www.w3.org/2000/svg" width="116.1020416901639" height="76.22449055059599" fill="none" style=""><rect id="backgroundrect" width="100%" height="100%" x="0" y="0" fill="none" stroke="none" style="" class="selected"/>




















<g class="currentLayer" style=""><title>Layer 1</title><path d="M161.2988366909027,233.06227360839844 C160.3698366909027,234.26927360839844 160.3698366909027,235.95027360839845 161.2988366909027,237.15627360839844 C162.3058366909027,238.46527360839843 186.1328366909027,268.66927360839844 214.28983669090272,268.66927360839844 C242.4468366909027,268.66927360839844 266.2748366909027,238.46527360839843 267.28083669090273,237.15627360839844 C268.2098366909027,235.95027360839845 268.2098366909027,234.26927360839844 267.28083669090273,233.06227360839844 C266.2748366909027,231.75327360839844 242.4468366909027,201.54930360839845 214.28983669090272,201.54930360839845 C186.1328366909027,201.54930360839845 162.3058366909027,231.75327360839844 161.2988366909027,233.06227360839844 zM168.3128366909027,235.10927360839844 C174.0178366909027,228.39727360839845 193.34883669090271,208.26127360839843 214.28983669090272,208.26127360839843 C235.2318366909027,208.26127360839843 254.5618366909027,228.39727360839845 260.2668366909027,235.10927360839844 C254.5618366909027,241.82127360839843 235.1978366909027,261.95727360839845 214.28983669090272,261.95727360839845 C193.34883669090271,261.95727360839845 174.0178366909027,241.82127360839843 168.3128366909027,235.10927360839844 z" fill="#59C3B9" id="svg_1" class=""/><path d="M159.79683669090272,232.03207360839843 C158.86783669090272,233.23907360839843 158.86783669090272,234.92007360839844 159.79683669090272,236.12607360839843 C160.8038366909027,237.43507360839845 184.6308366909027,267.63897360839843 212.7878366909027,267.63897360839843 C240.94483669090272,267.63897360839843 264.7728366909027,237.43507360839845 265.7798366909027,236.12607360839843 C266.7078366909027,234.92007360839844 266.7078366909027,233.23907360839843 265.7798366909027,232.03207360839843 C264.7728366909027,230.72307360839844 240.94483669090272,200.51902360839844 212.7878366909027,200.51902360839844 C184.6308366909027,200.51902360839844 160.8038366909027,230.72307360839844 159.79683669090272,232.03207360839843 zM166.8108366909027,234.07907360839843 C172.51583669090272,227.36707360839844 191.8468366909027,207.23107360839845 212.7878366909027,207.23107360839845 C233.72983669090272,207.23107360839845 253.0598366909027,227.36707360839844 258.7648366909027,234.07907360839843 C253.0598366909027,240.79107360839845 233.69583669090272,260.9270736083985 212.7878366909027,260.9270736083985 C191.8468366909027,260.9270736083985 172.51583669090272,240.79107360839845 166.8108366909027,234.07907360839843 z" fill="#87D0C8" id="svg_2" class=""/><path d="M158.2938366909027,231.00177360839842 C157.3648366909027,232.20877360839845 157.3648366909027,233.88977360839843 158.2938366909027,235.09577360839845 C159.3008366909027,236.40477360839844 183.1278366909027,266.60877360839845 211.28483669090272,266.60877360839845 C239.4418366909027,266.60877360839845 263.2698366909027,236.40477360839844 264.2768366909027,235.09577360839845 C265.2048366909027,233.88977360839843 265.2048366909027,232.20877360839845 264.2768366909027,231.00177360839842 C263.2698366909027,229.69277360839845 239.4418366909027,199.48875360839844 211.28483669090272,199.48875360839844 C183.1278366909027,199.48875360839844 159.3008366909027,229.69277360839845 158.2938366909027,231.00177360839842 zM165.30783669090272,233.04877360839845 C171.0128366909027,226.33677360839843 190.34383669090272,206.20075360839843 211.28483669090272,206.20075360839843 C232.2268366909027,206.20075360839843 251.5568366909027,226.33677360839843 257.26183669090267,233.04877360839845 C251.5568366909027,239.76077360839844 232.1928366909027,259.89677360839846 211.28483669090272,259.89677360839846 C190.34383669090272,259.89677360839846 171.0128366909027,239.76077360839844 165.30783669090272,233.04877360839845 z" fill="#AFDED8" id="svg_3" class=""/><path d="M156.7918366909027,229.97147360839844 C155.8628366909027,231.17847360839843 155.8628366909027,232.85947360839845 156.7918366909027,234.06547360839843 C157.7988366909027,235.37447360839843 181.6258366909027,265.57847360839844 209.7828366909027,265.57847360839844 C237.93983669090272,265.57847360839844 261.7678366909027,235.37447360839843 262.7748366909027,234.06547360839843 C263.7028366909027,232.85947360839845 263.7028366909027,231.17847360839843 262.7748366909027,229.97147360839844 C261.7678366909027,228.66247360839844 237.93983669090272,198.45848360839844 209.7828366909027,198.45848360839844 C181.6258366909027,198.45848360839844 157.7988366909027,228.66247360839844 156.7918366909027,229.97147360839844 zM163.8058366909027,232.01847360839844 C169.51083669090272,225.30647360839845 188.8418366909027,205.17048360839846 209.7828366909027,205.17048360839846 C230.72483669090272,205.17048360839846 250.0548366909027,225.30647360839845 255.76083669090272,232.01847360839844 C250.0548366909027,238.73047360839843 230.6908366909027,258.86647360839845 209.7828366909027,258.86647360839845 C188.8418366909027,258.86647360839845 169.51083669090272,238.73047360839843 163.8058366909027,232.01847360839844 z" fill="#D6EDEA" id="svg_4" class=""/><path d="M155.2888366909027,228.94167360839845 C154.3598366909027,230.14867360839844 154.3598366909027,231.82967360839842 155.2888366909027,233.03567360839844 C156.29583669090272,234.34467360839844 180.12283669090272,264.5486736083984 208.2798366909027,264.5486736083984 C236.4368366909027,264.5486736083984 260.2648366909027,234.34467360839844 261.2718366909027,233.03567360839844 C262.1998366909027,231.82967360839842 262.1998366909027,230.14867360839844 261.2718366909027,228.94167360839845 C260.2648366909027,227.63267360839842 236.4368366909027,197.42869360839845 208.2798366909027,197.42869360839845 C180.12283669090272,197.42869360839845 156.29583669090272,227.63267360839842 155.2888366909027,228.94167360839845 zM162.30283669090272,230.98867360839844 C168.0078366909027,224.27667360839843 187.33883669090272,204.14069360839844 208.2798366909027,204.14069360839844 C229.2218366909027,204.14069360839844 248.55183669090272,224.27667360839843 254.2568366909027,230.98867360839844 C248.55183669090272,237.70067360839843 229.1878366909027,257.8366736083984 208.2798366909027,257.8366736083984 C187.33883669090272,257.8366736083984 168.0078366909027,237.70067360839843 162.30283669090272,230.98867360839844 z" fill="white" id="svg_5" class=""/><path d="M196.515 44.2757C195.944 44.2757 195.391 44.1977 194.865 44.0507C197.573 49.1257 202.883 52.2857 208.656 52.2267C216.475 52.2267 222.814 45.8877 222.814 38.0687C222.814 30.2487 216.475 23.9107 208.656 23.9107C202.844 23.8517 197.498 27.0567 194.807 32.1917C195.35 32.0357 195.924 31.9527 196.515 31.9527C199.918 31.9527 202.677 34.7117 202.677 38.1137C202.677 41.5167 199.918 44.2757 196.515 44.2757Z" fill="#59C3B9" id="svg_6" class=""/><path d="M195.459 43.5513C194.888 43.5513 194.335 43.4733 193.809 43.3263C196.517 48.4013 201.827 51.4733 207.6 51.5023C215.419 51.5423 221.758 45.1633 221.758 37.3443C221.758 29.5243 215.419 23.2253 207.6 23.1863C201.787 23.1563 196.442 26.3323 193.751 31.4673C194.294 31.3113 194.867 31.2283 195.459 31.2283C198.862 31.2283 201.621 33.9873 201.621 37.3893C201.621 40.7923 198.862 43.5513 195.459 43.5513Z" fill="#87D0C8" id="svg_7" class=""/><path d="M194.402 42.8271C193.831 42.8271 193.278 42.7491 192.752 42.6021C195.46 47.6771 200.77 50.7491 206.543 50.7781C214.362 50.8181 220.701 44.4391 220.701 36.6201C220.701 28.8001 214.362 22.5011 206.543 22.4621C200.73 22.4321 195.385 25.6081 192.694 30.7431C193.237 30.5871 193.811 30.5041 194.402 30.5041C197.805 30.5041 200.564 33.2631 200.564 36.6651C200.564 40.0681 197.805 42.8271 194.402 42.8271Z" fill="#AFDED8" id="svg_8" class=""/><path d="M193.346 42.1025C192.775 42.1025 192.222 42.0245 191.696 41.8775C194.404 46.9525 199.714 50.0245 205.487 50.0535C213.306 50.0935 219.645 43.7145 219.645 35.8955C219.645 28.0755 213.306 21.7765 205.487 21.7375C199.674 21.7075 194.329 24.8835 191.638 30.0185C192.181 29.8625 192.755 29.7795 193.346 29.7795C196.749 29.7795 199.508 32.5385 199.508 35.9405C199.508 39.3435 196.749 42.1025 193.346 42.1025Z" fill="#D6EDEA" id="svg_9" class=""/><path d="M192.29 41.3783C191.719 41.3783 191.166 41.3003 190.64 41.1533C193.348 46.2283 198.658 49.3883 204.431 49.3293C212.25 49.3293 218.589 42.9903 218.589 35.1713C218.589 27.3513 212.25 21.0133 204.431 21.0133C198.619 20.9543 193.273 24.1593 190.582 29.2943C191.125 29.1383 191.698 29.0553 192.29 29.0553C195.693 29.0553 198.452 31.8143 198.452 35.2163C198.452 38.6193 195.693 41.3783 192.29 41.3783Z" fill="white" id="svg_10" class=""/><path d="M7.431564076766968,37.12240431518555 C6.5025640767669675,38.32940431518554 6.5025640767669675,40.01040431518555 7.431564076766968,41.21640431518554 C8.438564076766967,42.52540431518554 32.26560407676697,72.72940431518555 60.422604076766966,72.72940431518555 C88.57960407676697,72.72940431518555 112.40720407676697,42.52540431518554 113.41420407676696,41.21640431518554 C114.34220407676696,40.01040431518555 114.34220407676696,38.32940431518554 113.41420407676696,37.12240431518555 C112.40720407676697,35.81340431518555 88.57960407676697,5.609444315185556 60.422604076766966,5.609444315185556 C32.26560407676697,5.609444315185556 8.438564076766967,35.81340431518555 7.431564076766968,37.12240431518555 zM14.445604076766967,39.169404315185545 C20.150604076766967,32.457404315185556 39.48160407676697,12.321404315185532 60.422604076766966,12.321404315185532 C81.36460407676697,12.321404315185532 100.69420407676697,32.457404315185556 106.39920407676696,39.169404315185545 C100.69420407676697,45.881404315185534 81.33060407676697,66.01740431518556 60.422604076766966,66.01740431518556 C39.48160407676697,66.01740431518556 20.150604076766967,45.881404315185534 14.445604076766967,39.169404315185545 z" fill="#59C3B9" id="svg_11" class=""/><path d="M7.431564076766968,37.12240431518555 C6.5025640767669675,38.32940431518554 6.5025640767669675,40.01040431518555 7.431564076766968,41.21640431518554 C8.438564076766967,42.52540431518554 32.26560407676697,72.72940431518555 60.422604076766966,72.72940431518555 C88.57960407676697,72.72940431518555 112.40720407676697,42.52540431518554 113.41420407676696,41.21640431518554 C114.34220407676696,40.01040431518555 114.34220407676696,38.32940431518554 113.41420407676696,37.12240431518555 C112.40720407676697,35.81340431518555 88.57960407676697,5.609444315185556 60.422604076766966,5.609444315185556 C32.26560407676697,5.609444315185556 8.438564076766967,35.81340431518555 7.431564076766968,37.12240431518555 zM14.445604076766967,39.169404315185545 C20.150604076766967,32.457404315185556 39.48160407676697,12.321404315185532 60.422604076766966,12.321404315185532 C81.36460407676697,12.321404315185532 100.69420407676697,32.457404315185556 106.39920407676696,39.169404315185545 C100.69420407676697,45.881404315185534 81.33060407676697,66.01740431518556 60.422604076766966,66.01740431518556 C39.48160407676697,66.01740431518556 20.150604076766967,45.881404315185534 14.445604076766967,39.169404315185545 z" fill="#59C3B9" class="" id="svg_22"/><path d="M5.929124076766968,36.09220431518554 C5.0001240767669675,37.299204315185534 5.0001240767669675,38.980204315185546 5.929124076766968,40.186204315185535 C6.936124076766967,41.49520431518556 30.763104076766965,71.69920431518551 58.92010407676697,71.69920431518551 C87.07710407676697,71.69920431518551 110.90520407676696,41.49520431518556 111.91220407676697,40.186204315185535 C112.84020407676697,38.980204315185546 112.84020407676697,37.299204315185534 111.91220407676697,36.09220431518554 C110.90520407676696,34.78320431518554 87.07710407676697,4.579174315185554 58.92010407676697,4.579174315185554 C30.763104076766965,4.579174315185554 6.936124076766967,34.78320431518554 5.929124076766968,36.09220431518554 zM12.943104076766968,38.13920431518554 C18.648104076766966,31.427204315185577 37.979104076766966,11.291204315185553 58.92010407676697,11.291204315185553 C79.86210407676697,11.291204315185553 99.19210407676697,31.427204315185577 104.89720407676697,38.13920431518554 C99.19210407676697,44.851204315185555 79.82810407676696,64.98720431518552 58.92010407676697,64.98720431518552 C37.979104076766966,64.98720431518552 18.648104076766966,44.851204315185555 12.943104076766968,38.13920431518554 z" fill="#87D0C8" class="" id="svg_23"/><path d="M4.426684076766968,35.06190431518553 C3.4976840767669675,36.26890431518555 3.4976840767669675,37.94990431518556 4.426684076766968,39.15590431518555 C5.433684076766967,40.46490431518555 29.260704076766967,70.66890431518556 57.41770407676697,70.66890431518556 C85.57470407676696,70.66890431518556 109.40220407676696,40.46490431518555 110.40920407676697,39.15590431518555 C111.33720407676697,37.94990431518556 111.33720407676697,36.26890431518555 110.40920407676697,35.06190431518553 C109.40220407676696,33.75290431518556 85.57470407676696,3.5489043151855526 57.41770407676697,3.5489043151855526 C29.260704076766967,3.5489043151855526 5.433684076766967,33.75290431518556 4.426684076766968,35.06190431518553 zM11.440704076766968,37.108904315185555 C17.145704076766968,30.396904315185566 36.47670407676697,10.260894315185539 57.41770407676697,10.260894315185539 C78.35970407676697,10.260894315185539 97.68970407676697,30.396904315185566 103.39420407676697,37.108904315185555 C97.68970407676697,43.820904315185544 78.32570407676697,63.95690431518551 57.41770407676697,63.95690431518551 C36.47670407676697,63.95690431518551 17.145704076766968,43.820904315185544 11.440704076766968,37.108904315185555 z" fill="#AFDED8" class="" id="svg_24"/><path d="M2.9242440767669677,34.03160431518555 C1.995244076766968,35.23860431518554 1.995244076766968,36.91960431518555 2.9242440767669677,38.12560431518554 C3.9312440767669674,39.43460431518554 27.75820407676697,69.63860431518555 55.91520407676697,69.63860431518555 C84.07220407676697,69.63860431518555 107.90020407676697,39.43460431518554 108.90720407676697,38.12560431518554 C109.83520407676697,36.91960431518555 109.83520407676697,35.23860431518554 108.90720407676697,34.03160431518555 C107.90020407676697,32.72260431518555 84.07220407676697,2.518624315185548 55.91520407676697,2.518624315185548 C27.75820407676697,2.518624315185548 3.9312440767669674,32.72260431518555 2.9242440767669677,34.03160431518555 zM9.938244076766967,36.078604315185544 C15.643204076766967,29.366604315185555 34.974204076766966,9.230624315185537 55.91520407676697,9.230624315185537 C76.85720407676696,9.230624315185537 96.18720407676697,29.366604315185555 101.89220407676697,36.078604315185544 C96.18720407676697,42.79060431518553 76.82320407676697,62.92660431518556 55.91520407676697,62.92660431518556 C34.974204076766966,62.92660431518556 15.643204076766967,42.79060431518553 9.938244076766967,36.078604315185544 z" fill="#D6EDEA" class="" id="svg_25"/><path d="M1.4217980767669678,33.00180431518555 C0.49279787676696785,34.208804315185546 0.49279787676696785,35.88980431518556 1.4217980767669678,37.095804315185546 C2.428794076766968,38.404804315185544 26.255804076766967,68.60880431518558 54.41280407676697,68.60880431518558 C82.56980407676697,68.60880431518558 106.39820407676697,38.404804315185544 107.40520407676696,37.095804315185546 C108.33320407676696,35.88980431518556 108.33320407676696,34.208804315185546 107.40520407676696,33.00180431518555 C106.39820407676697,31.692804315185555 82.56980407676697,1.4888423151855363 54.41280407676697,1.4888423151855363 C26.255804076766967,1.4888423151855363 2.428794076766968,31.692804315185555 1.4217980767669678,33.00180431518555 zM8.435794076766967,35.04880431518555 C14.140804076766967,28.336804315185532 33.471804076766965,8.200844315185549 54.41280407676697,8.200844315185549 C75.35480407676697,8.200844315185549 94.68480407676697,28.336804315185532 100.38980407676696,35.04880431518555 C94.68480407676697,41.76080431518554 75.32080407676696,61.896804315185534 54.41280407676697,61.896804315185534 C33.471804076766965,61.896804315185534 14.140804076766967,41.76080431518554 8.435794076766967,35.04880431518555 z" fill="white" class="" id="svg_26"/><path d="M87.01552111091614,-34.317229252624514 C86.44452111091613,-34.317229252624514 85.89152111091613,-34.39522925262451 85.36552111091613,-34.54222925262451 C88.07352111091615,-29.467229252624513 93.38352111091613,-26.30722925262451 99.15652111091615,-26.366229252624514 C106.97552111091613,-26.366229252624514 113.31452111091613,-32.70522925262451 113.31452111091613,-40.524229252624515 C113.31452111091613,-48.344229252624515 106.97552111091613,-54.68222925262451 99.15652111091615,-54.68222925262451 C93.34452111091613,-54.74122925262451 87.99852111091613,-51.53622925262451 85.30852111091613,-46.40122925262451 C85.85052111091613,-46.55722925262451 86.42452111091615,-46.64022925262451 87.01552111091614,-46.64022925262451 C90.41852111091615,-46.64022925262451 93.17752111091613,-43.881229252624514 93.17752111091613,-40.47922925262451 C93.17752111091613,-37.076229252624515 90.41852111091615,-34.317229252624514 87.01552111091614,-34.317229252624514 z" fill="#59C3B9" class="" id="svg_27"/><path d="M85.95892111091614,-35.04162925262451 C85.38792111091614,-35.04162925262451 84.83492111091613,-35.11962925262451 84.30892111091615,-35.26662925262451 C87.01692111091613,-30.19162925262451 92.32692111091615,-27.119629252624513 98.09992111091614,-27.09062925262451 C105.91892111091614,-27.05062925262451 112.25792111091614,-33.42962925262451 112.25792111091614,-41.24862925262451 C112.25792111091614,-49.06862925262451 105.91892111091614,-55.36762925262451 98.09992111091614,-55.40662925262451 C92.28692111091614,-55.43662925262451 86.94192111091614,-52.26062925262451 84.25092111091614,-47.12562925262451 C84.79392111091613,-47.28162925262451 85.36792111091614,-47.36462925262451 85.95892111091614,-47.36462925262451 C89.36192111091614,-47.36462925262451 92.12092111091613,-44.60562925262451 92.12092111091613,-41.20362925262451 C92.12092111091613,-37.80062925262451 89.36192111091614,-35.04162925262451 85.95892111091614,-35.04162925262451 z" fill="#87D0C8" class="" id="svg_28"/><path d="M84.90252111091614,-35.76582925262451 C84.33152111091613,-35.76582925262451 83.77852111091613,-35.84382925262451 83.25252111091613,-35.990829252624515 C85.96052111091615,-30.915829252624512 91.27052111091614,-27.84382925262451 97.04352111091615,-27.814829252624513 C104.86252111091613,-27.774829252624514 111.20152111091613,-34.15382925262451 111.20152111091613,-41.972829252624514 C111.20152111091613,-49.792829252624514 104.86252111091613,-56.09182925262451 97.04352111091615,-56.13082925262451 C91.23052111091613,-56.16082925262451 85.88552111091613,-52.98482925262451 83.19452111091613,-47.84982925262452 C83.73752111091613,-48.00582925262451 84.31052111091614,-48.08882925262451 84.90252111091614,-48.08882925262451 C88.30552111091615,-48.08882925262451 91.06452111091613,-45.32982925262451 91.06452111091613,-41.92782925262451 C91.06452111091613,-38.524829252624514 88.30552111091615,-35.76582925262451 84.90252111091614,-35.76582925262451 z" fill="#AFDED8" class="" id="svg_29"/><path d="M83.84612111091613,-36.49042925262451 C83.27512111091615,-36.49042925262451 82.72212111091613,-36.56842925262451 82.19612111091614,-36.71542925262451 C84.90412111091614,-31.640429252624514 90.21412111091614,-28.56842925262451 95.98712111091614,-28.539429252624515 C103.80612111091614,-28.49942925262451 110.14512111091614,-34.878429252624514 110.14512111091614,-42.69742925262451 C110.14512111091614,-50.51742925262451 103.80612111091614,-56.816429252624516 95.98712111091614,-56.85542925262451 C90.17412111091613,-56.88542925262451 84.82912111091613,-53.70942925262451 82.13912111091614,-48.57442925262451 C82.68112111091614,-48.73042925262451 83.25512111091614,-48.813429252624516 83.84612111091613,-48.813429252624516 C87.24912111091614,-48.813429252624516 90.00812111091614,-46.05442925262451 90.00812111091614,-42.652429252624515 C90.00812111091614,-39.24942925262451 87.24912111091614,-36.49042925262451 83.84612111091613,-36.49042925262451 z" fill="#D6EDEA" class="" id="svg_30"/><path d="M82.78972111091613,-37.21462925262451 C82.21872111091614,-37.21462925262451 81.66572111091614,-37.292629252624515 81.13972111091614,-37.43962925262451 C83.84772111091614,-32.36462925262451 89.15772111091613,-29.204629252624514 94.93072111091614,-29.26362925262451 C102.74972111091614,-29.26362925262451 109.08872111091614,-35.60262925262451 109.08872111091614,-43.42162925262451 C109.08872111091614,-51.24162925262451 102.74972111091614,-57.57962925262451 94.93072111091614,-57.57962925262451 C89.11872111091614,-57.63862925262451 83.77272111091614,-54.43362925262451 81.08172111091613,-49.29862925262451 C81.62472111091614,-49.454629252624514 82.19872111091614,-49.53762925262451 82.78972111091613,-49.53762925262451 C86.19272111091614,-49.53762925262451 88.95172111091614,-46.77862925262451 88.95172111091614,-43.37662925262451 C88.95172111091614,-39.97362925262451 86.19272111091614,-37.21462925262451 82.78972111091613,-37.21462925262451 z" fill="white" class="" id="svg_31"/><path d="M82.78972111091613,-37.21462925262451 C82.21872111091614,-37.21462925262451 81.66572111091614,-37.292629252624515 81.13972111091614,-37.43962925262451 C83.84772111091614,-32.36462925262451 89.15772111091613,-29.204629252624514 94.93072111091614,-29.26362925262451 C102.74972111091614,-29.26362925262451 109.08872111091614,-35.60262925262451 109.08872111091614,-43.42162925262451 C109.08872111091614,-51.24162925262451 102.74972111091614,-57.57962925262451 94.93072111091614,-57.57962925262451 C89.11872111091614,-57.63862925262451 83.77272111091614,-54.43362925262451 81.08172111091613,-49.29862925262451 C81.62472111091614,-49.454629252624514 82.19872111091614,-49.53762925262451 82.78972111091613,-49.53762925262451 C86.19272111091614,-49.53762925262451 88.95172111091614,-46.77862925262451 88.95172111091614,-43.37662925262451 C88.95172111091614,-39.97362925262451 86.19272111091614,-37.21462925262451 82.78972111091613,-37.21462925262451 z" fill="white" class="" id="svg_32"/><path d="M5.929124076766968,36.09220431518554 C5.0001240767669675,37.299204315185534 5.0001240767669675,38.980204315185546 5.929124076766968,40.186204315185535 C6.936124076766967,41.49520431518556 30.763104076766965,71.69920431518551 58.92010407676697,71.69920431518551 C87.07710407676697,71.69920431518551 110.90520407676696,41.49520431518556 111.91220407676697,40.186204315185535 C112.84020407676697,38.980204315185546 112.84020407676697,37.299204315185534 111.91220407676697,36.09220431518554 C110.90520407676696,34.78320431518554 87.07710407676697,4.579174315185554 58.92010407676697,4.579174315185554 C30.763104076766965,4.579174315185554 6.936124076766967,34.78320431518554 5.929124076766968,36.09220431518554 zM12.943104076766968,38.13920431518554 C18.648104076766966,31.427204315185577 37.979104076766966,11.291204315185553 58.92010407676697,11.291204315185553 C79.86210407676697,11.291204315185553 99.19210407676697,31.427204315185577 104.89720407676697,38.13920431518554 C99.19210407676697,44.851204315185555 79.82810407676696,64.98720431518552 58.92010407676697,64.98720431518552 C37.979104076766966,64.98720431518552 18.648104076766966,44.851204315185555 12.943104076766968,38.13920431518554 z" fill="#87D0C8" id="svg_12" class=""/><path d="M4.426684076766968,35.06190431518553 C3.4976840767669675,36.26890431518555 3.4976840767669675,37.94990431518556 4.426684076766968,39.15590431518555 C5.433684076766967,40.46490431518555 29.260704076766967,70.66890431518556 57.41770407676697,70.66890431518556 C85.57470407676696,70.66890431518556 109.40220407676696,40.46490431518555 110.40920407676697,39.15590431518555 C111.33720407676697,37.94990431518556 111.33720407676697,36.26890431518555 110.40920407676697,35.06190431518553 C109.40220407676696,33.75290431518556 85.57470407676696,3.5489043151855526 57.41770407676697,3.5489043151855526 C29.260704076766967,3.5489043151855526 5.433684076766967,33.75290431518556 4.426684076766968,35.06190431518553 zM11.440704076766968,37.108904315185555 C17.145704076766968,30.396904315185566 36.47670407676697,10.260894315185539 57.41770407676697,10.260894315185539 C78.35970407676697,10.260894315185539 97.68970407676697,30.396904315185566 103.39420407676697,37.108904315185555 C97.68970407676697,43.820904315185544 78.32570407676697,63.95690431518551 57.41770407676697,63.95690431518551 C36.47670407676697,63.95690431518551 17.145704076766968,43.820904315185544 11.440704076766968,37.108904315185555 z" fill="#AFDED8" id="svg_13" class=""/><path d="M2.9242440767669677,34.03160431518555 C1.995244076766968,35.23860431518554 1.995244076766968,36.91960431518555 2.9242440767669677,38.12560431518554 C3.9312440767669674,39.43460431518554 27.75820407676697,69.63860431518555 55.91520407676697,69.63860431518555 C84.07220407676697,69.63860431518555 107.90020407676697,39.43460431518554 108.90720407676697,38.12560431518554 C109.83520407676697,36.91960431518555 109.83520407676697,35.23860431518554 108.90720407676697,34.03160431518555 C107.90020407676697,32.72260431518555 84.07220407676697,2.518624315185548 55.91520407676697,2.518624315185548 C27.75820407676697,2.518624315185548 3.9312440767669674,32.72260431518555 2.9242440767669677,34.03160431518555 zM9.938244076766967,36.078604315185544 C15.643204076766967,29.366604315185555 34.974204076766966,9.230624315185537 55.91520407676697,9.230624315185537 C76.85720407676696,9.230624315185537 96.18720407676697,29.366604315185555 101.89220407676697,36.078604315185544 C96.18720407676697,42.79060431518553 76.82320407676697,62.92660431518556 55.91520407676697,62.92660431518556 C34.974204076766966,62.92660431518556 15.643204076766967,42.79060431518553 9.938244076766967,36.078604315185544 z" fill="#D6EDEA" id="svg_14" class=""/><path d="M1.4217980767669678,33.00180431518555 C0.49279787676696785,34.208804315185546 0.49279787676696785,35.88980431518556 1.4217980767669678,37.095804315185546 C2.428794076766968,38.404804315185544 26.255804076766967,68.60880431518558 54.41280407676697,68.60880431518558 C82.56980407676697,68.60880431518558 106.39820407676697,38.404804315185544 107.40520407676696,37.095804315185546 C108.33320407676696,35.88980431518556 108.33320407676696,34.208804315185546 107.40520407676696,33.00180431518555 C106.39820407676697,31.692804315185555 82.56980407676697,1.4888423151855363 54.41280407676697,1.4888423151855363 C26.255804076766967,1.4888423151855363 2.428794076766968,31.692804315185555 1.4217980767669678,33.00180431518555 zM8.435794076766967,35.04880431518555 C14.140804076766967,28.336804315185532 33.471804076766965,8.200844315185549 54.41280407676697,8.200844315185549 C75.35480407676697,8.200844315185549 94.68480407676697,28.336804315185532 100.38980407676696,35.04880431518555 C94.68480407676697,41.76080431518554 75.32080407676696,61.896804315185534 54.41280407676697,61.896804315185534 C33.471804076766965,61.896804315185534 14.140804076766967,41.76080431518554 8.435794076766967,35.04880431518555 z" fill="white" id="svg_15" class=""/><path d="M87.01552111091614,-34.317229252624514 C86.44452111091613,-34.317229252624514 85.89152111091613,-34.39522925262451 85.36552111091613,-34.54222925262451 C88.07352111091615,-29.467229252624513 93.38352111091613,-26.30722925262451 99.15652111091615,-26.366229252624514 C106.97552111091613,-26.366229252624514 113.31452111091613,-32.70522925262451 113.31452111091613,-40.524229252624515 C113.31452111091613,-48.344229252624515 106.97552111091613,-54.68222925262451 99.15652111091615,-54.68222925262451 C93.34452111091613,-54.74122925262451 87.99852111091613,-51.53622925262451 85.30852111091613,-46.40122925262451 C85.85052111091613,-46.55722925262451 86.42452111091615,-46.64022925262451 87.01552111091614,-46.64022925262451 C90.41852111091615,-46.64022925262451 93.17752111091613,-43.881229252624514 93.17752111091613,-40.47922925262451 C93.17752111091613,-37.076229252624515 90.41852111091615,-34.317229252624514 87.01552111091614,-34.317229252624514 z" fill="#59C3B9" id="svg_16" class=""/><path d="M85.95892111091614,-35.04162925262451 C85.38792111091614,-35.04162925262451 84.83492111091613,-35.11962925262451 84.30892111091615,-35.26662925262451 C87.01692111091613,-30.19162925262451 92.32692111091615,-27.119629252624513 98.09992111091614,-27.09062925262451 C105.91892111091614,-27.05062925262451 112.25792111091614,-33.42962925262451 112.25792111091614,-41.24862925262451 C112.25792111091614,-49.06862925262451 105.91892111091614,-55.36762925262451 98.09992111091614,-55.40662925262451 C92.28692111091614,-55.43662925262451 86.94192111091614,-52.26062925262451 84.25092111091614,-47.12562925262451 C84.79392111091613,-47.28162925262451 85.36792111091614,-47.36462925262451 85.95892111091614,-47.36462925262451 C89.36192111091614,-47.36462925262451 92.12092111091613,-44.60562925262451 92.12092111091613,-41.20362925262451 C92.12092111091613,-37.80062925262451 89.36192111091614,-35.04162925262451 85.95892111091614,-35.04162925262451 z" fill="#87D0C8" id="svg_17" class=""/><path d="M84.90252111091614,-35.76582925262451 C84.33152111091613,-35.76582925262451 83.77852111091613,-35.84382925262451 83.25252111091613,-35.990829252624515 C85.96052111091615,-30.915829252624512 91.27052111091614,-27.84382925262451 97.04352111091615,-27.814829252624513 C104.86252111091613,-27.774829252624514 111.20152111091613,-34.15382925262451 111.20152111091613,-41.972829252624514 C111.20152111091613,-49.792829252624514 104.86252111091613,-56.09182925262451 97.04352111091615,-56.13082925262451 C91.23052111091613,-56.16082925262451 85.88552111091613,-52.98482925262451 83.19452111091613,-47.84982925262452 C83.73752111091613,-48.00582925262451 84.31052111091614,-48.08882925262451 84.90252111091614,-48.08882925262451 C88.30552111091615,-48.08882925262451 91.06452111091613,-45.32982925262451 91.06452111091613,-41.92782925262451 C91.06452111091613,-38.524829252624514 88.30552111091615,-35.76582925262451 84.90252111091614,-35.76582925262451 z" fill="#AFDED8" id="svg_18" class=""/><path d="M83.84612111091613,-36.49042925262451 C83.27512111091615,-36.49042925262451 82.72212111091613,-36.56842925262451 82.19612111091614,-36.71542925262451 C84.90412111091614,-31.640429252624514 90.21412111091614,-28.56842925262451 95.98712111091614,-28.539429252624515 C103.80612111091614,-28.49942925262451 110.14512111091614,-34.878429252624514 110.14512111091614,-42.69742925262451 C110.14512111091614,-50.51742925262451 103.80612111091614,-56.816429252624516 95.98712111091614,-56.85542925262451 C90.17412111091613,-56.88542925262451 84.82912111091613,-53.70942925262451 82.13912111091614,-48.57442925262451 C82.68112111091614,-48.73042925262451 83.25512111091614,-48.813429252624516 83.84612111091613,-48.813429252624516 C87.24912111091614,-48.813429252624516 90.00812111091614,-46.05442925262451 90.00812111091614,-42.652429252624515 C90.00812111091614,-39.24942925262451 87.24912111091614,-36.49042925262451 83.84612111091613,-36.49042925262451 z" fill="#D6EDEA" id="svg_19" class=""/><path d="M82.78972111091613,-37.21462925262451 C82.21872111091614,-37.21462925262451 81.66572111091614,-37.292629252624515 81.13972111091614,-37.43962925262451 C83.84772111091614,-32.36462925262451 89.15772111091613,-29.204629252624514 94.93072111091614,-29.26362925262451 C102.74972111091614,-29.26362925262451 109.08872111091614,-35.60262925262451 109.08872111091614,-43.42162925262451 C109.08872111091614,-51.24162925262451 102.74972111091614,-57.57962925262451 94.93072111091614,-57.57962925262451 C89.11872111091614,-57.63862925262451 83.77272111091614,-54.43362925262451 81.08172111091613,-49.29862925262451 C81.62472111091614,-49.454629252624514 82.19872111091614,-49.53762925262451 82.78972111091613,-49.53762925262451 C86.19272111091614,-49.53762925262451 88.95172111091614,-46.77862925262451 88.95172111091614,-43.37662925262451 C88.95172111091614,-39.97362925262451 86.19272111091614,-37.21462925262451 82.78972111091613,-37.21462925262451 z" fill="white" id="svg_20" class=""/><path d="M82.78972111091613,-37.21462925262451 C82.21872111091614,-37.21462925262451 81.66572111091614,-37.292629252624515 81.13972111091614,-37.43962925262451 C83.84772111091614,-32.36462925262451 89.15772111091613,-29.204629252624514 94.93072111091614,-29.26362925262451 C102.74972111091614,-29.26362925262451 109.08872111091614,-35.60262925262451 109.08872111091614,-43.42162925262451 C109.08872111091614,-51.24162925262451 102.74972111091614,-57.57962925262451 94.93072111091614,-57.57962925262451 C89.11872111091614,-57.63862925262451 83.77272111091614,-54.43362925262451 81.08172111091613,-49.29862925262451 C81.62472111091614,-49.454629252624514 82.19872111091614,-49.53762925262451 82.78972111091613,-49.53762925262451 C86.19272111091614,-49.53762925262451 88.95172111091614,-46.77862925262451 88.95172111091614,-43.37662925262451 C88.95172111091614,-39.97362925262451 86.19272111091614,-37.21462925262451 82.78972111091613,-37.21462925262451 z" fill="white" class="" id="svg_21"/></g></svg>