<svg xmlns="http://www.w3.org/2000/svg" width="32.918367426378495" height="32.97959185659465" fill="none" style=""><rect id="backgroundrect" width="100%" height="100%" x="0" y="0" fill="none" stroke="none" style="" class="selected"/>




















<g class="currentLayer" style=""><title>Layer 1</title><path d="M161.2988366909027,233.06227360839844 C160.3698366909027,234.26927360839844 160.3698366909027,235.95027360839845 161.2988366909027,237.15627360839844 C162.3058366909027,238.46527360839843 186.1328366909027,268.66927360839844 214.28983669090272,268.66927360839844 C242.4468366909027,268.66927360839844 266.2748366909027,238.46527360839843 267.28083669090273,237.15627360839844 C268.2098366909027,235.95027360839845 268.2098366909027,234.26927360839844 267.28083669090273,233.06227360839844 C266.2748366909027,231.75327360839844 242.4468366909027,201.54930360839845 214.28983669090272,201.54930360839845 C186.1328366909027,201.54930360839845 162.3058366909027,231.75327360839844 161.2988366909027,233.06227360839844 zM168.3128366909027,235.10927360839844 C174.0178366909027,228.39727360839845 193.34883669090271,208.26127360839843 214.28983669090272,208.26127360839843 C235.2318366909027,208.26127360839843 254.5618366909027,228.39727360839845 260.2668366909027,235.10927360839844 C254.5618366909027,241.82127360839843 235.1978366909027,261.95727360839845 214.28983669090272,261.95727360839845 C193.34883669090271,261.95727360839845 174.0178366909027,241.82127360839843 168.3128366909027,235.10927360839844 z" fill="#59C3B9" id="svg_1" class=""/><path d="M159.79683669090272,232.03207360839843 C158.86783669090272,233.23907360839843 158.86783669090272,234.92007360839844 159.79683669090272,236.12607360839843 C160.8038366909027,237.43507360839845 184.6308366909027,267.63897360839843 212.7878366909027,267.63897360839843 C240.94483669090272,267.63897360839843 264.7728366909027,237.43507360839845 265.7798366909027,236.12607360839843 C266.7078366909027,234.92007360839844 266.7078366909027,233.23907360839843 265.7798366909027,232.03207360839843 C264.7728366909027,230.72307360839844 240.94483669090272,200.51902360839844 212.7878366909027,200.51902360839844 C184.6308366909027,200.51902360839844 160.8038366909027,230.72307360839844 159.79683669090272,232.03207360839843 zM166.8108366909027,234.07907360839843 C172.51583669090272,227.36707360839844 191.8468366909027,207.23107360839845 212.7878366909027,207.23107360839845 C233.72983669090272,207.23107360839845 253.0598366909027,227.36707360839844 258.7648366909027,234.07907360839843 C253.0598366909027,240.79107360839845 233.69583669090272,260.9270736083985 212.7878366909027,260.9270736083985 C191.8468366909027,260.9270736083985 172.51583669090272,240.79107360839845 166.8108366909027,234.07907360839843 z" fill="#87D0C8" id="svg_2" class=""/><path d="M158.2938366909027,231.00177360839842 C157.3648366909027,232.20877360839845 157.3648366909027,233.88977360839843 158.2938366909027,235.09577360839845 C159.3008366909027,236.40477360839844 183.1278366909027,266.60877360839845 211.28483669090272,266.60877360839845 C239.4418366909027,266.60877360839845 263.2698366909027,236.40477360839844 264.2768366909027,235.09577360839845 C265.2048366909027,233.88977360839843 265.2048366909027,232.20877360839845 264.2768366909027,231.00177360839842 C263.2698366909027,229.69277360839845 239.4418366909027,199.48875360839844 211.28483669090272,199.48875360839844 C183.1278366909027,199.48875360839844 159.3008366909027,229.69277360839845 158.2938366909027,231.00177360839842 zM165.30783669090272,233.04877360839845 C171.0128366909027,226.33677360839843 190.34383669090272,206.20075360839843 211.28483669090272,206.20075360839843 C232.2268366909027,206.20075360839843 251.5568366909027,226.33677360839843 257.26183669090267,233.04877360839845 C251.5568366909027,239.76077360839844 232.1928366909027,259.89677360839846 211.28483669090272,259.89677360839846 C190.34383669090272,259.89677360839846 171.0128366909027,239.76077360839844 165.30783669090272,233.04877360839845 z" fill="#AFDED8" id="svg_3" class=""/><path d="M156.7918366909027,229.97147360839844 C155.8628366909027,231.17847360839843 155.8628366909027,232.85947360839845 156.7918366909027,234.06547360839843 C157.7988366909027,235.37447360839843 181.6258366909027,265.57847360839844 209.7828366909027,265.57847360839844 C237.93983669090272,265.57847360839844 261.7678366909027,235.37447360839843 262.7748366909027,234.06547360839843 C263.7028366909027,232.85947360839845 263.7028366909027,231.17847360839843 262.7748366909027,229.97147360839844 C261.7678366909027,228.66247360839844 237.93983669090272,198.45848360839844 209.7828366909027,198.45848360839844 C181.6258366909027,198.45848360839844 157.7988366909027,228.66247360839844 156.7918366909027,229.97147360839844 zM163.8058366909027,232.01847360839844 C169.51083669090272,225.30647360839845 188.8418366909027,205.17048360839846 209.7828366909027,205.17048360839846 C230.72483669090272,205.17048360839846 250.0548366909027,225.30647360839845 255.76083669090272,232.01847360839844 C250.0548366909027,238.73047360839843 230.6908366909027,258.86647360839845 209.7828366909027,258.86647360839845 C188.8418366909027,258.86647360839845 169.51083669090272,238.73047360839843 163.8058366909027,232.01847360839844 z" fill="#D6EDEA" id="svg_4" class=""/><path d="M155.2888366909027,228.94167360839845 C154.3598366909027,230.14867360839844 154.3598366909027,231.82967360839842 155.2888366909027,233.03567360839844 C156.29583669090272,234.34467360839844 180.12283669090272,264.5486736083984 208.2798366909027,264.5486736083984 C236.4368366909027,264.5486736083984 260.2648366909027,234.34467360839844 261.2718366909027,233.03567360839844 C262.1998366909027,231.82967360839842 262.1998366909027,230.14867360839844 261.2718366909027,228.94167360839845 C260.2648366909027,227.63267360839842 236.4368366909027,197.42869360839845 208.2798366909027,197.42869360839845 C180.12283669090272,197.42869360839845 156.29583669090272,227.63267360839842 155.2888366909027,228.94167360839845 zM162.30283669090272,230.98867360839844 C168.0078366909027,224.27667360839843 187.33883669090272,204.14069360839844 208.2798366909027,204.14069360839844 C229.2218366909027,204.14069360839844 248.55183669090272,224.27667360839843 254.2568366909027,230.98867360839844 C248.55183669090272,237.70067360839843 229.1878366909027,257.8366736083984 208.2798366909027,257.8366736083984 C187.33883669090272,257.8366736083984 168.0078366909027,237.70067360839843 162.30283669090272,230.98867360839844 z" fill="white" id="svg_5" class=""/><path d="M196.515 44.2757C195.944 44.2757 195.391 44.1977 194.865 44.0507C197.573 49.1257 202.883 52.2857 208.656 52.2267C216.475 52.2267 222.814 45.8877 222.814 38.0687C222.814 30.2487 216.475 23.9107 208.656 23.9107C202.844 23.8517 197.498 27.0567 194.807 32.1917C195.35 32.0357 195.924 31.9527 196.515 31.9527C199.918 31.9527 202.677 34.7117 202.677 38.1137C202.677 41.5167 199.918 44.2757 196.515 44.2757Z" fill="#59C3B9" id="svg_6" class=""/><path d="M195.459 43.5513C194.888 43.5513 194.335 43.4733 193.809 43.3263C196.517 48.4013 201.827 51.4733 207.6 51.5023C215.419 51.5423 221.758 45.1633 221.758 37.3443C221.758 29.5243 215.419 23.2253 207.6 23.1863C201.787 23.1563 196.442 26.3323 193.751 31.4673C194.294 31.3113 194.867 31.2283 195.459 31.2283C198.862 31.2283 201.621 33.9873 201.621 37.3893C201.621 40.7923 198.862 43.5513 195.459 43.5513Z" fill="#87D0C8" id="svg_7" class=""/><path d="M194.402 42.8271C193.831 42.8271 193.278 42.7491 192.752 42.6021C195.46 47.6771 200.77 50.7491 206.543 50.7781C214.362 50.8181 220.701 44.4391 220.701 36.6201C220.701 28.8001 214.362 22.5011 206.543 22.4621C200.73 22.4321 195.385 25.6081 192.694 30.7431C193.237 30.5871 193.811 30.5041 194.402 30.5041C197.805 30.5041 200.564 33.2631 200.564 36.6651C200.564 40.0681 197.805 42.8271 194.402 42.8271Z" fill="#AFDED8" id="svg_8" class=""/><path d="M193.346 42.1025C192.775 42.1025 192.222 42.0245 191.696 41.8775C194.404 46.9525 199.714 50.0245 205.487 50.0535C213.306 50.0935 219.645 43.7145 219.645 35.8955C219.645 28.0755 213.306 21.7765 205.487 21.7375C199.674 21.7075 194.329 24.8835 191.638 30.0185C192.181 29.8625 192.755 29.7795 193.346 29.7795C196.749 29.7795 199.508 32.5385 199.508 35.9405C199.508 39.3435 196.749 42.1025 193.346 42.1025Z" fill="#D6EDEA" id="svg_9" class=""/><path d="M192.29 41.3783C191.719 41.3783 191.166 41.3003 190.64 41.1533C193.348 46.2283 198.658 49.3883 204.431 49.3293C212.25 49.3293 218.589 42.9903 218.589 35.1713C218.589 27.3513 212.25 21.0133 204.431 21.0133C198.619 20.9543 193.273 24.1593 190.582 29.2943C191.125 29.1383 191.698 29.0553 192.29 29.0553C195.693 29.0553 198.452 31.8143 198.452 35.2163C198.452 38.6193 195.693 41.3783 192.29 41.3783Z" fill="white" id="svg_10" class=""/><path d="M8.962176307067871,233.55097792358399 C8.03317630706787,234.75797792358398 8.03317630706787,236.438977923584 8.962176307067871,237.64497792358398 C9.96917630706787,238.95397792358398 33.79621630706787,269.157977923584 61.95321630706787,269.157977923584 C90.11021630706787,269.157977923584 113.93781630706788,238.95397792358398 114.94481630706787,237.64497792358398 C115.87281630706786,236.438977923584 115.87281630706786,234.75797792358398 114.94481630706787,233.55097792358399 C113.93781630706788,232.241977923584 90.11021630706787,202.038017923584 61.95321630706787,202.038017923584 C33.79621630706787,202.038017923584 9.96917630706787,232.241977923584 8.962176307067871,233.55097792358399 zM15.97621630706787,235.59797792358398 C21.68121630706787,228.885977923584 41.012216307067874,208.74997792358397 61.95321630706787,208.74997792358397 C82.89521630706787,208.74997792358397 102.22481630706787,228.885977923584 107.92981630706787,235.59797792358398 C102.22481630706787,242.30997792358397 82.86121630706788,262.445977923584 61.95321630706787,262.445977923584 C41.012216307067874,262.445977923584 21.68121630706787,242.30997792358397 15.97621630706787,235.59797792358398 z" fill="#59C3B9" id="svg_11" class=""/><path d="M8.962176307067871,233.55097792358399 C8.03317630706787,234.75797792358398 8.03317630706787,236.438977923584 8.962176307067871,237.64497792358398 C9.96917630706787,238.95397792358398 33.79621630706787,269.157977923584 61.95321630706787,269.157977923584 C90.11021630706787,269.157977923584 113.93781630706788,238.95397792358398 114.94481630706787,237.64497792358398 C115.87281630706786,236.438977923584 115.87281630706786,234.75797792358398 114.94481630706787,233.55097792358399 C113.93781630706788,232.241977923584 90.11021630706787,202.038017923584 61.95321630706787,202.038017923584 C33.79621630706787,202.038017923584 9.96917630706787,232.241977923584 8.962176307067871,233.55097792358399 zM15.97621630706787,235.59797792358398 C21.68121630706787,228.885977923584 41.012216307067874,208.74997792358397 61.95321630706787,208.74997792358397 C82.89521630706787,208.74997792358397 102.22481630706787,228.885977923584 107.92981630706787,235.59797792358398 C102.22481630706787,242.30997792358397 82.86121630706788,262.445977923584 61.95321630706787,262.445977923584 C41.012216307067874,262.445977923584 21.68121630706787,242.30997792358397 15.97621630706787,235.59797792358398 z" fill="#59C3B9" class="" id="svg_22"/><path d="M7.459736307067871,232.52077792358398 C6.530736307067871,233.72777792358397 6.530736307067871,235.40877792358398 7.459736307067871,236.61477792358397 C8.46673630706787,237.923777923584 32.29371630706787,268.12777792358395 60.45071630706787,268.12777792358395 C88.60771630706788,268.12777792358395 112.43581630706787,237.923777923584 113.44281630706787,236.61477792358397 C114.37081630706787,235.40877792358398 114.37081630706787,233.72777792358397 113.44281630706787,232.52077792358398 C112.43581630706787,231.21177792358398 88.60771630706788,201.007747923584 60.45071630706787,201.007747923584 C32.29371630706787,201.007747923584 8.46673630706787,231.21177792358398 7.459736307067871,232.52077792358398 zM14.473716307067871,234.56777792358398 C20.17871630706787,227.855777923584 39.50971630706787,207.719777923584 60.45071630706787,207.719777923584 C81.39271630706787,207.719777923584 100.72271630706787,227.855777923584 106.42781630706787,234.56777792358398 C100.72271630706787,241.279777923584 81.35871630706787,261.41577792358396 60.45071630706787,261.41577792358396 C39.50971630706787,261.41577792358396 20.17871630706787,241.279777923584 14.473716307067871,234.56777792358398 z" fill="#87D0C8" class="" id="svg_23"/><path d="M5.957296307067871,231.49047792358397 C5.028296307067871,232.697477923584 5.028296307067871,234.378477923584 5.957296307067871,235.584477923584 C6.964296307067871,236.893477923584 30.79131630706787,267.097477923584 58.94831630706787,267.097477923584 C87.10531630706787,267.097477923584 110.93281630706787,236.893477923584 111.93981630706787,235.584477923584 C112.86781630706787,234.378477923584 112.86781630706787,232.697477923584 111.93981630706787,231.49047792358397 C110.93281630706787,230.181477923584 87.10531630706787,199.977477923584 58.94831630706787,199.977477923584 C30.79131630706787,199.977477923584 6.964296307067871,230.181477923584 5.957296307067871,231.49047792358397 zM12.971316307067871,233.537477923584 C18.67631630706787,226.825477923584 38.007316307067875,206.68946792358398 58.94831630706787,206.68946792358398 C79.89031630706788,206.68946792358398 99.22031630706788,226.825477923584 104.92481630706787,233.537477923584 C99.22031630706788,240.24947792358398 79.85631630706787,260.38547792358395 58.94831630706787,260.38547792358395 C38.007316307067875,260.38547792358395 18.67631630706787,240.24947792358398 12.971316307067871,233.537477923584 z" fill="#AFDED8" class="" id="svg_24"/><path d="M4.454856307067871,230.46017792358398 C3.5258563070678712,231.66717792358398 3.5258563070678712,233.348177923584 4.454856307067871,234.55417792358398 C5.461856307067871,235.86317792358398 29.288816307067872,266.067177923584 57.44581630706787,266.067177923584 C85.60281630706787,266.067177923584 109.43081630706787,235.86317792358398 110.43781630706788,234.55417792358398 C111.36581630706787,233.348177923584 111.36581630706787,231.66717792358398 110.43781630706788,230.46017792358398 C109.43081630706787,229.151177923584 85.60281630706787,198.94719792358399 57.44581630706787,198.94719792358399 C29.288816307067872,198.94719792358399 5.461856307067871,229.151177923584 4.454856307067871,230.46017792358398 zM11.46885630706787,232.50717792358398 C17.17381630706787,225.795177923584 36.50481630706787,205.65919792358397 57.44581630706787,205.65919792358397 C78.38781630706787,205.65919792358397 97.71781630706788,225.795177923584 103.42281630706788,232.50717792358398 C97.71781630706788,239.21917792358397 78.35381630706787,259.355177923584 57.44581630706787,259.355177923584 C36.50481630706787,259.355177923584 17.17381630706787,239.21917792358397 11.46885630706787,232.50717792358398 z" fill="#D6EDEA" class="" id="svg_25"/><path d="M2.952410307067871,229.430377923584 C2.023410107067871,230.63737792358398 2.023410107067871,232.318377923584 2.952410307067871,233.52437792358398 C3.959406307067871,234.83337792358398 27.78641630706787,265.037377923584 55.94341630706787,265.037377923584 C84.10041630706787,265.037377923584 107.92881630706788,234.83337792358398 108.93581630706787,233.52437792358398 C109.86381630706786,232.318377923584 109.86381630706786,230.63737792358398 108.93581630706787,229.430377923584 C107.92881630706788,228.121377923584 84.10041630706787,197.91741592358397 55.94341630706787,197.91741592358397 C27.78641630706787,197.91741592358397 3.959406307067871,228.121377923584 2.952410307067871,229.430377923584 zM9.96640630706787,231.477377923584 C15.67141630706787,224.76537792358397 35.00241630706787,204.629417923584 55.94341630706787,204.629417923584 C76.88541630706787,204.629417923584 96.21541630706787,224.76537792358397 101.92041630706787,231.477377923584 C96.21541630706787,238.18937792358398 76.85141630706786,258.32537792358397 55.94341630706787,258.32537792358397 C35.00241630706787,258.32537792358397 15.67141630706787,238.18937792358398 9.96640630706787,231.477377923584 z" fill="white" class="" id="svg_26"/><path d="M6.40327745857239,24.866444606018064 C5.832277458572385,24.866444606018064 5.279277458572388,24.788444606018068 4.753277458572384,24.64144460601807 C7.46127745857239,29.716444606018065 12.771277458572385,32.87644460601807 18.544277458572388,32.817444606018064 C26.363277458572384,32.817444606018064 32.70227745857238,26.478444606018066 32.70227745857238,18.659444606018063 C32.70227745857238,10.839444606018066 26.363277458572384,4.501444606018065 18.544277458572388,4.501444606018065 C12.73227745857239,4.442444606018068 7.386277458572387,7.647444606018066 4.696277458572389,12.782444606018068 C5.238277458572391,12.626444606018069 5.812277458572389,12.543444606018067 6.40327745857239,12.543444606018067 C9.806277458572389,12.543444606018067 12.565277458572389,15.302444606018064 12.565277458572389,18.704444606018065 C12.565277458572389,22.107444606018063 9.806277458572389,24.866444606018064 6.40327745857239,24.866444606018064 z" fill="#59C3B9" class="" id="svg_27"/><path d="M5.346677458572387,24.142044606018068 C4.775677458572389,24.142044606018068 4.2226774585723845,24.064044606018065 3.6966774585723883,23.917044606018067 C6.404677458572385,28.99204460601807 11.714677458572389,32.064044606018065 17.487677458572385,32.09304460601807 C25.306677458572395,32.13304460601807 31.645677458572393,25.75404460601807 31.645677458572393,17.935044606018067 C31.645677458572393,10.115044606018067 25.306677458572395,3.8160446060180675 17.487677458572385,3.777044606018066 C11.67467745857239,3.7470446060180653 6.329677458572391,6.923044606018067 3.6386774585723884,12.058044606018065 C4.181677458572388,11.902044606018066 4.755677458572386,11.819044606018068 5.346677458572387,11.819044606018068 C8.749677458572386,11.819044606018068 11.508677458572386,14.578044606018068 11.508677458572386,17.98004460601807 C11.508677458572386,21.383044606018068 8.749677458572386,24.142044606018068 5.346677458572387,24.142044606018068 z" fill="#87D0C8" class="" id="svg_28"/><path d="M4.29027745857239,23.417844606018065 C3.7192774585723853,23.417844606018065 3.166277458572388,23.33984460601807 2.6402774585723847,23.192844606018063 C5.34827745857239,28.267844606018066 10.658277458572385,31.33984460601807 16.43127745857239,31.368844606018065 C24.250277458572384,31.408844606018064 30.589277458572383,25.029844606018067 30.589277458572383,17.210844606018064 C30.589277458572383,9.390844606018067 24.250277458572384,3.0918446060180678 16.43127745857239,3.0528446060180663 C10.618277458572386,3.022844606018065 5.273277458572387,6.198844606018067 2.582277458572385,11.333844606018065 C3.1252774585723913,11.177844606018066 3.6982774585723845,11.094844606018068 4.29027745857239,11.094844606018068 C7.693277458572389,11.094844606018068 10.45227745857239,13.853844606018065 10.45227745857239,17.255844606018066 C10.45227745857239,20.658844606018064 7.693277458572389,23.417844606018065 4.29027745857239,23.417844606018065 z" fill="#AFDED8" class="" id="svg_29"/><path d="M3.233877458572387,22.69324460601807 C2.662877458572389,22.69324460601807 2.1098774585723845,22.615244606018067 1.5838774585723874,22.468244606018068 C4.291877458572387,27.543244606018064 9.601877458572389,30.615244606018067 15.374877458572385,30.644244606018063 C23.193877458572388,30.68424460601807 29.532877458572386,24.305244606018064 29.532877458572386,16.48624460601807 C29.532877458572386,8.666244606018065 23.193877458572388,2.3672446060180654 15.374877458572385,2.3282446060180675 C9.56187745857239,2.2982446060180663 4.216877458572391,5.474244606018068 1.526877458572386,10.609244606018066 C2.0688774585723877,10.453244606018067 2.6428774585723858,10.370244606018066 3.233877458572387,10.370244606018066 C6.6368774585723855,10.370244606018066 9.395877458572386,13.12924460601807 9.395877458572386,16.531244606018063 C9.395877458572386,19.93424460601807 6.6368774585723855,22.69324460601807 3.233877458572387,22.69324460601807 z" fill="#D6EDEA" class="" id="svg_30"/><path d="M2.1774774585723904,21.969044606018066 C1.6064774585723853,21.969044606018066 1.053477458572388,21.891044606018063 0.5274774585723856,21.744044606018065 C3.23547745857239,26.819044606018068 8.545477458572385,29.979044606018064 14.318477458572389,29.920044606018067 C22.13747745857239,29.920044606018067 28.47647745857239,23.581044606018068 28.47647745857239,15.762044606018065 C28.47647745857239,7.942044606018065 22.13747745857239,1.604044606018068 14.318477458572389,1.604044606018068 C8.506477458572391,1.5450446060180667 3.1604774585723874,4.750044606018065 0.4694774585723849,9.885044606018067 C1.0124774585723912,9.729044606018068 1.5864774585723893,9.646044606018066 2.1774774585723904,9.646044606018066 C5.580477458572389,9.646044606018066 8.33947745857239,12.405044606018066 8.33947745857239,15.807044606018067 C8.33947745857239,19.210044606018066 5.580477458572389,21.969044606018066 2.1774774585723904,21.969044606018066 z" fill="white" class="" id="svg_31"/><path d="M2.1774774585723904,21.969044606018066 C1.6064774585723853,21.969044606018066 1.053477458572388,21.891044606018063 0.5274774585723856,21.744044606018065 C3.23547745857239,26.819044606018068 8.545477458572385,29.979044606018064 14.318477458572389,29.920044606018067 C22.13747745857239,29.920044606018067 28.47647745857239,23.581044606018068 28.47647745857239,15.762044606018065 C28.47647745857239,7.942044606018065 22.13747745857239,1.604044606018068 14.318477458572389,1.604044606018068 C8.506477458572391,1.5450446060180667 3.1604774585723874,4.750044606018065 0.4694774585723849,9.885044606018067 C1.0124774585723912,9.729044606018068 1.5864774585723893,9.646044606018066 2.1774774585723904,9.646044606018066 C5.580477458572389,9.646044606018066 8.33947745857239,12.405044606018066 8.33947745857239,15.807044606018067 C8.33947745857239,19.210044606018066 5.580477458572389,21.969044606018066 2.1774774585723904,21.969044606018066 z" fill="white" class="" id="svg_32"/><path d="M7.459736307067871,232.52077792358398 C6.530736307067871,233.72777792358397 6.530736307067871,235.40877792358398 7.459736307067871,236.61477792358397 C8.46673630706787,237.923777923584 32.29371630706787,268.12777792358395 60.45071630706787,268.12777792358395 C88.60771630706788,268.12777792358395 112.43581630706787,237.923777923584 113.44281630706787,236.61477792358397 C114.37081630706787,235.40877792358398 114.37081630706787,233.72777792358397 113.44281630706787,232.52077792358398 C112.43581630706787,231.21177792358398 88.60771630706788,201.007747923584 60.45071630706787,201.007747923584 C32.29371630706787,201.007747923584 8.46673630706787,231.21177792358398 7.459736307067871,232.52077792358398 zM14.473716307067871,234.56777792358398 C20.17871630706787,227.855777923584 39.50971630706787,207.719777923584 60.45071630706787,207.719777923584 C81.39271630706787,207.719777923584 100.72271630706787,227.855777923584 106.42781630706787,234.56777792358398 C100.72271630706787,241.279777923584 81.35871630706787,261.41577792358396 60.45071630706787,261.41577792358396 C39.50971630706787,261.41577792358396 20.17871630706787,241.279777923584 14.473716307067871,234.56777792358398 z" fill="#87D0C8" id="svg_12" class=""/><path d="M5.957296307067871,231.49047792358397 C5.028296307067871,232.697477923584 5.028296307067871,234.378477923584 5.957296307067871,235.584477923584 C6.964296307067871,236.893477923584 30.79131630706787,267.097477923584 58.94831630706787,267.097477923584 C87.10531630706787,267.097477923584 110.93281630706787,236.893477923584 111.93981630706787,235.584477923584 C112.86781630706787,234.378477923584 112.86781630706787,232.697477923584 111.93981630706787,231.49047792358397 C110.93281630706787,230.181477923584 87.10531630706787,199.977477923584 58.94831630706787,199.977477923584 C30.79131630706787,199.977477923584 6.964296307067871,230.181477923584 5.957296307067871,231.49047792358397 zM12.971316307067871,233.537477923584 C18.67631630706787,226.825477923584 38.007316307067875,206.68946792358398 58.94831630706787,206.68946792358398 C79.89031630706788,206.68946792358398 99.22031630706788,226.825477923584 104.92481630706787,233.537477923584 C99.22031630706788,240.24947792358398 79.85631630706787,260.38547792358395 58.94831630706787,260.38547792358395 C38.007316307067875,260.38547792358395 18.67631630706787,240.24947792358398 12.971316307067871,233.537477923584 z" fill="#AFDED8" id="svg_13" class=""/><path d="M4.454856307067871,230.46017792358398 C3.5258563070678712,231.66717792358398 3.5258563070678712,233.348177923584 4.454856307067871,234.55417792358398 C5.461856307067871,235.86317792358398 29.288816307067872,266.067177923584 57.44581630706787,266.067177923584 C85.60281630706787,266.067177923584 109.43081630706787,235.86317792358398 110.43781630706788,234.55417792358398 C111.36581630706787,233.348177923584 111.36581630706787,231.66717792358398 110.43781630706788,230.46017792358398 C109.43081630706787,229.151177923584 85.60281630706787,198.94719792358399 57.44581630706787,198.94719792358399 C29.288816307067872,198.94719792358399 5.461856307067871,229.151177923584 4.454856307067871,230.46017792358398 zM11.46885630706787,232.50717792358398 C17.17381630706787,225.795177923584 36.50481630706787,205.65919792358397 57.44581630706787,205.65919792358397 C78.38781630706787,205.65919792358397 97.71781630706788,225.795177923584 103.42281630706788,232.50717792358398 C97.71781630706788,239.21917792358397 78.35381630706787,259.355177923584 57.44581630706787,259.355177923584 C36.50481630706787,259.355177923584 17.17381630706787,239.21917792358397 11.46885630706787,232.50717792358398 z" fill="#D6EDEA" id="svg_14" class=""/><path d="M2.952410307067871,229.430377923584 C2.023410107067871,230.63737792358398 2.023410107067871,232.318377923584 2.952410307067871,233.52437792358398 C3.959406307067871,234.83337792358398 27.78641630706787,265.037377923584 55.94341630706787,265.037377923584 C84.10041630706787,265.037377923584 107.92881630706788,234.83337792358398 108.93581630706787,233.52437792358398 C109.86381630706786,232.318377923584 109.86381630706786,230.63737792358398 108.93581630706787,229.430377923584 C107.92881630706788,228.121377923584 84.10041630706787,197.91741592358397 55.94341630706787,197.91741592358397 C27.78641630706787,197.91741592358397 3.959406307067871,228.121377923584 2.952410307067871,229.430377923584 zM9.96640630706787,231.477377923584 C15.67141630706787,224.76537792358397 35.00241630706787,204.629417923584 55.94341630706787,204.629417923584 C76.88541630706787,204.629417923584 96.21541630706787,224.76537792358397 101.92041630706787,231.477377923584 C96.21541630706787,238.18937792358398 76.85141630706786,258.32537792358397 55.94341630706787,258.32537792358397 C35.00241630706787,258.32537792358397 15.67141630706787,238.18937792358398 9.96640630706787,231.477377923584 z" fill="white" id="svg_15" class=""/><path d="M6.40327745857239,24.866444606018064 C5.832277458572385,24.866444606018064 5.279277458572388,24.788444606018068 4.753277458572384,24.64144460601807 C7.46127745857239,29.716444606018065 12.771277458572385,32.87644460601807 18.544277458572388,32.817444606018064 C26.363277458572384,32.817444606018064 32.70227745857238,26.478444606018066 32.70227745857238,18.659444606018063 C32.70227745857238,10.839444606018066 26.363277458572384,4.501444606018065 18.544277458572388,4.501444606018065 C12.73227745857239,4.442444606018068 7.386277458572387,7.647444606018066 4.696277458572389,12.782444606018068 C5.238277458572391,12.626444606018069 5.812277458572389,12.543444606018067 6.40327745857239,12.543444606018067 C9.806277458572389,12.543444606018067 12.565277458572389,15.302444606018064 12.565277458572389,18.704444606018065 C12.565277458572389,22.107444606018063 9.806277458572389,24.866444606018064 6.40327745857239,24.866444606018064 z" fill="#59C3B9" id="svg_16" class=""/><path d="M5.346677458572387,24.142044606018068 C4.775677458572389,24.142044606018068 4.2226774585723845,24.064044606018065 3.6966774585723883,23.917044606018067 C6.404677458572385,28.99204460601807 11.714677458572389,32.064044606018065 17.487677458572385,32.09304460601807 C25.306677458572395,32.13304460601807 31.645677458572393,25.75404460601807 31.645677458572393,17.935044606018067 C31.645677458572393,10.115044606018067 25.306677458572395,3.8160446060180675 17.487677458572385,3.777044606018066 C11.67467745857239,3.7470446060180653 6.329677458572391,6.923044606018067 3.6386774585723884,12.058044606018065 C4.181677458572388,11.902044606018066 4.755677458572386,11.819044606018068 5.346677458572387,11.819044606018068 C8.749677458572386,11.819044606018068 11.508677458572386,14.578044606018068 11.508677458572386,17.98004460601807 C11.508677458572386,21.383044606018068 8.749677458572386,24.142044606018068 5.346677458572387,24.142044606018068 z" fill="#87D0C8" id="svg_17" class=""/><path d="M4.29027745857239,23.417844606018065 C3.7192774585723853,23.417844606018065 3.166277458572388,23.33984460601807 2.6402774585723847,23.192844606018063 C5.34827745857239,28.267844606018066 10.658277458572385,31.33984460601807 16.43127745857239,31.368844606018065 C24.250277458572384,31.408844606018064 30.589277458572383,25.029844606018067 30.589277458572383,17.210844606018064 C30.589277458572383,9.390844606018067 24.250277458572384,3.0918446060180678 16.43127745857239,3.0528446060180663 C10.618277458572386,3.022844606018065 5.273277458572387,6.198844606018067 2.582277458572385,11.333844606018065 C3.1252774585723913,11.177844606018066 3.6982774585723845,11.094844606018068 4.29027745857239,11.094844606018068 C7.693277458572389,11.094844606018068 10.45227745857239,13.853844606018065 10.45227745857239,17.255844606018066 C10.45227745857239,20.658844606018064 7.693277458572389,23.417844606018065 4.29027745857239,23.417844606018065 z" fill="#AFDED8" id="svg_18" class=""/><path d="M3.233877458572387,22.69324460601807 C2.662877458572389,22.69324460601807 2.1098774585723845,22.615244606018067 1.5838774585723874,22.468244606018068 C4.291877458572387,27.543244606018064 9.601877458572389,30.615244606018067 15.374877458572385,30.644244606018063 C23.193877458572388,30.68424460601807 29.532877458572386,24.305244606018064 29.532877458572386,16.48624460601807 C29.532877458572386,8.666244606018065 23.193877458572388,2.3672446060180654 15.374877458572385,2.3282446060180675 C9.56187745857239,2.2982446060180663 4.216877458572391,5.474244606018068 1.526877458572386,10.609244606018066 C2.0688774585723877,10.453244606018067 2.6428774585723858,10.370244606018066 3.233877458572387,10.370244606018066 C6.6368774585723855,10.370244606018066 9.395877458572386,13.12924460601807 9.395877458572386,16.531244606018063 C9.395877458572386,19.93424460601807 6.6368774585723855,22.69324460601807 3.233877458572387,22.69324460601807 z" fill="#D6EDEA" id="svg_19" class=""/><path d="M2.1774774585723904,21.969044606018066 C1.6064774585723853,21.969044606018066 1.053477458572388,21.891044606018063 0.5274774585723856,21.744044606018065 C3.23547745857239,26.819044606018068 8.545477458572385,29.979044606018064 14.318477458572389,29.920044606018067 C22.13747745857239,29.920044606018067 28.47647745857239,23.581044606018068 28.47647745857239,15.762044606018065 C28.47647745857239,7.942044606018065 22.13747745857239,1.604044606018068 14.318477458572389,1.604044606018068 C8.506477458572391,1.5450446060180667 3.1604774585723874,4.750044606018065 0.4694774585723849,9.885044606018067 C1.0124774585723912,9.729044606018068 1.5864774585723893,9.646044606018066 2.1774774585723904,9.646044606018066 C5.580477458572389,9.646044606018066 8.33947745857239,12.405044606018066 8.33947745857239,15.807044606018067 C8.33947745857239,19.210044606018066 5.580477458572389,21.969044606018066 2.1774774585723904,21.969044606018066 z" fill="white" id="svg_20" class=""/><path d="M2.1774774585723904,21.969044606018066 C1.6064774585723853,21.969044606018066 1.053477458572388,21.891044606018063 0.5274774585723856,21.744044606018065 C3.23547745857239,26.819044606018068 8.545477458572385,29.979044606018064 14.318477458572389,29.920044606018067 C22.13747745857239,29.920044606018067 28.47647745857239,23.581044606018068 28.47647745857239,15.762044606018065 C28.47647745857239,7.942044606018065 22.13747745857239,1.604044606018068 14.318477458572389,1.604044606018068 C8.506477458572391,1.5450446060180667 3.1604774585723874,4.750044606018065 0.4694774585723849,9.885044606018067 C1.0124774585723912,9.729044606018068 1.5864774585723893,9.646044606018066 2.1774774585723904,9.646044606018066 C5.580477458572389,9.646044606018066 8.33947745857239,12.405044606018066 8.33947745857239,15.807044606018067 C8.33947745857239,19.210044606018066 5.580477458572389,21.969044606018066 2.1774774585723904,21.969044606018066 z" fill="white" class="" id="svg_21"/></g></svg>