<svg xmlns="http://www.w3.org/2000/svg" version="1.1" xmlns:xlink="http://www.w3.org/1999/xlink" xmlns:svgjs="http://svgjs.dev/svgjs" width="1920" height="350" preserveAspectRatio="none" viewBox="0 0 1920 350"><g mask="url(&quot;#SvgjsMask1084&quot;)" fill="none"><rect width="1920" height="350" x="0" y="0" fill="url(&quot;#SvgjsLinearGradient1085&quot;)"></rect><path d="M43 350L393 0L760.5 0L410.5 350z" fill="url(&quot;#SvgjsLinearGradient1086&quot;)"></path><path d="M347.8 350L697.8 0L994.8 0L644.8 350z" fill="url(&quot;#SvgjsLinearGradient1086&quot;)"></path><path d="M678.6 350L1028.6 0L1459.1 0L1109.1 350z" fill="url(&quot;#SvgjsLinearGradient1086&quot;)"></path><path d="M995.4000000000001 350L1345.4 0L1471.4 0L1121.4 350z" fill="url(&quot;#SvgjsLinearGradient1086&quot;)"></path><path d="M1912 350L1562 0L1113.5 0L1463.5 350z" fill="url(&quot;#SvgjsLinearGradient1087&quot;)"></path><path d="M1551.2 350L1201.2 0L967.2 0L1317.2 350z" fill="url(&quot;#SvgjsLinearGradient1087&quot;)"></path><path d="M1260.4 350L910.4000000000001 0L724.4000000000001 0L1074.4 350z" fill="url(&quot;#SvgjsLinearGradient1087&quot;)"></path><path d="M943.5999999999999 350L593.5999999999999 0L158.5999999999999 0L508.5999999999999 350z" fill="url(&quot;#SvgjsLinearGradient1087&quot;)"></path><path d="M1719.4791462094017 350L1920 149.47914620940173L1920 350z" fill="url(&quot;#SvgjsLinearGradient1086&quot;)"></path><path d="M0 350L200.52085379059827 350L 0 149.47914620940173z" fill="url(&quot;#SvgjsLinearGradient1087&quot;)"></path></g><defs><mask id="SvgjsMask1084"><rect width="1920" height="350" fill="#ffffff"></rect></mask><linearGradient x1="50%" y1="100%" x2="50%" y2="0%" gradientUnits="userSpaceOnUse" id="SvgjsLinearGradient1085"><stop stop-color="rgba(86, 19, 119, 1)" offset="0"></stop><stop stop-color="rgba(0, 0, 0, 1)" offset="1"></stop></linearGradient><linearGradient x1="0%" y1="100%" x2="100%" y2="0%" id="SvgjsLinearGradient1086"><stop stop-color="rgba(15, 70, 185, 0.2)" offset="0"></stop><stop stop-opacity="0" stop-color="rgba(15, 70, 185, 0.2)" offset="0.66"></stop></linearGradient><linearGradient x1="100%" y1="100%" x2="0%" y2="0%" id="SvgjsLinearGradient1087"><stop stop-color="rgba(15, 70, 185, 0.2)" offset="0"></stop><stop stop-opacity="0" stop-color="rgba(15, 70, 185, 0.2)" offset="0.66"></stop></linearGradient></defs></svg>